<?xml version="1.0" encoding="UTF-8"?><svg id="Layer_2" xmlns="http://www.w3.org/2000/svg" viewBox="0 0 1500.8068 935.5693"><g id="Components"><g id="_x34_d223a20-0cea-4ec7-86ba-3c40aa1987b6_x40_1"><path d="M1001.9693,324.9011c-17.4293,0-34.1958-3.4386-49.6535-9.6375-3.0599-1.2302-6.0728-2.5708-9.0221-4.0062-3.6279-1.7824-7.161-3.7066-10.5836-5.773l-6.7193-.0474-6.2463,2.7603c7.4608,5.1894,15.3315,9.6217,23.5492,13.281,2.9651,1.3249,5.978,2.5552,9.0221,3.675,15.7572,5.773,32.4924,8.7857,49.6535,8.7857,13.2178,0,26.2148-1.7981,38.6913-5.2683v-9.5584c-12.3188,3.7698-25.3158,5.7888-38.6913,5.7888ZM1145.7248,185.3255v-.0157c-.0945-32.2086-1.4038-67.3509-19.1327-92.6666-20.5839-29.4167-60.1898-43.1235-124.6227-43.1235-59.5906,0-99.1021,14.0695-120.79,42.9973-18.7855,25.0634-22.508,58.9911-22.9339,92.7454-.0472,2.5552-.063,5.1262-.063,7.6815,0,.9149.0158,1.8139.0314,2.713v.0157c.3156,15.9466,3.3597,31.4672,8.9434,46.0731,1.2146,3.2021,2.5552,6.3409,4.0222,9.4481,7.145,15.205,17.1451,29.2589,29.7319,41.483,3.3914,3.2965,6.893,6.4039,10.5209,9.3219,2.7129,2.1767,5.4732,4.2429,8.3122,6.1987,7.4608,5.1894,15.3315,9.6217,23.5492,13.281,2.9651,1.3249,5.978,2.5552,9.0221,3.675,15.7572,5.773,32.4924,8.7857,49.6535,8.7857,13.2178,0,26.2148-1.7981,38.6913-5.2683,3.0441-.8516,6.0568-1.798,9.0221-2.839,10.4575-3.675,20.4892-8.5491,29.9056-14.5743,2.9497-1.8929,5.8361-3.8803,8.6594-5.9936.0474-.0316.1105-.0789.1579-.1105.836-.631,1.6718-1.2777,2.5079-1.9243,4.1799-3.2651,8.2179-6.7825,12.0822-10.5523,12.5868-12.2241,22.5869-26.2779,29.7479-41.483v-.0158c1.467-3.1072,2.8075-6.2461,4.022-9.4481,5.5679-14.5901,8.6278-30.0949,8.9434-46.0099v-.0158c.0158-.9149.0316-1.8454.0316-2.7603,0-2.5236,0-5.0474-.0158-7.6184ZM1106.1661,275.5157c-8.0602,9.6533-17.4451,18.2337-27.871,25.4105-3.0285,2.082-6.1357,4.0378-9.3219,5.8833-6.1513,3.5489-12.6026,6.6404-19.2904,9.2114-2.9653,1.1356-5.9623,2.1609-9.0221,3.0915-12.3188,3.7698-25.3158,5.7888-38.6913,5.7888-17.4293,0-34.1958-3.4386-49.6535-9.6375-3.0599-1.2302-6.0728-2.5708-9.0221-4.0062-3.6279-1.7824-7.161-3.7066-10.5836-5.773-3.9906-2.3975-7.8551-4.9999-11.5618-7.776-19.0539-14.2747-34.3063-33.3284-43.6596-55.1583-3.6279-8.4543-6.3724-17.3503-8.1076-26.5303-1.4194-7.508-2.1607-15.2367-2.1607-23.076,0-34.6691,2.555-70.1742,21.1831-95.0167,19.8742-26.4987,57.0195-39.3852,113.5658-39.3852,134.7331,0,134.7331,62.2877,134.7331,134.4019,0,17.098-3.5331,33.5808-9.8895,48.7387-5.1578,12.2557-12.1611,23.6438-20.6468,33.8331ZM1001.9693,324.9011c-17.4293,0-34.1958-3.4386-49.6535-9.6375v9.8897c15.7572,5.773,32.4924,8.7857,49.6535,8.7857,13.2178,0,26.2148-1.7981,38.6913-5.2683v-9.5584c-12.3188,3.7698-25.3158,5.7888-38.6913,5.7888ZM1001.9693,324.9011c-17.4293,0-34.1958-3.4386-49.6535-9.6375-3.0599-1.2302-6.0728-2.5708-9.0221-4.0062-3.6279-1.7824-7.161-3.7066-10.5836-5.773l-6.7193-.0474-6.2463,2.7603c7.4608,5.1894,15.3315,9.6217,23.5492,13.281,2.9651,1.3249,5.978,2.5552,9.0221,3.675,15.7572,5.773,32.4924,8.7857,49.6535,8.7857,13.2178,0,26.2148-1.7981,38.6913-5.2683v-9.5584c-12.3188,3.7698-25.3158,5.7888-38.6913,5.7888Z" style="fill:#121b26;"/><path d="M1118.9264,180.0416c-3.1388-21.8141-13.8646-42.1613-30.2054-57.3035-.347-.3312-.6939-.6624-1.0409-.9779,1.0882,3.8644,2.3344,7.8077,3.6749,11.2304l2.3188,5.9307-6.3722.2208c-1.1516.0316-22.0351.5994-42.1457-10.4891,2.082,2.7603,4.2588,5.0474,6.3566,6.2777l-2.4921,8.407c-1.8299-.0788-37.2719-1.8927-62.067-17.4292,1.8769,3.5963,4.1011,7.0506,6.5774,9.5427l7.713,7.6972h-10.8992c-16.0412,0-37.3664-10.6783-51.2624-18.8172,3.2649,4.3849,5.9054,12.4092,5.9054,12.4092-11.4512,0-15.0536,6.3291-25.8583,2.0231-5.8202-2.3187-12.1767-2.0821-17.8708.6467-5.7414,2.7445-10.0948,7.8077-11.9717,13.8802-4.3534,14.18-11.6565,44.5273-11.7982,89.2596,9.3533,21.8299,24.6057,40.8837,43.6596,55.1583,3.7066,2.7761,7.5711,5.3785,11.5618,7.776,3.4226,2.0664,6.9558,3.9906,10.5836,5.773,2.9494,1.4354,5.9623,2.7761,9.0221,4.0062,15.4576,6.1989,32.2242,9.6375,49.6535,9.6375,13.3755,0,26.3725-2.019,38.6913-5.7888,3.0599-.9306,6.0568-1.9558,9.0221-3.0915,6.6878-2.571,13.1391-5.6625,19.2904-9.2114,3.1862-1.8455,6.2934-3.8014,9.3219-5.8833,10.426-7.1768,19.8108-15.7572,27.871-25.4105,15.3471-28.7858,16.7036-67.9975,12.7603-95.4741ZM953.6094,172.6598c8.5804,0,15.5362,8.8802,15.5362,19.8109,0,10.9465-6.9558,19.8109-15.5362,19.8109s-15.5366-8.8644-15.5366-19.8109c0-10.9307,6.956-19.8109,15.5366-19.8109ZM1035.5186,263.891c-.347,1.956-1.4826,3.7066-3.123,4.8109-11.9245,8.0442-23.9907,12.1138-35.8205,12.1138-3.7858,0-7.5869-.4259-11.3093-1.2461-23.565-5.2525-38.8174-25.4893-44.2748-33.9436-1.1042-1.7035-1.4514-3.7856-.9465-5.7414.4733-1.9086,1.7194-3.5489,3.4228-4.5426l3.3597-1.8139.4733.836c2.4131.0631,4.6214,1.2934,5.9463,3.3123,4.5584,6.9875,17.1137,23.6438,35.2369,27.6502,2.6342.5836,5.3315.8834,8.0286.8834,8.9274,0,18.2651-3.2335,27.7605-9.6217,1.1988-.8202,2.6026-1.2461,4.0536-1.2461,2.3186,0,4.5113,1.12,5.8833,2.9813,1.1672,1.5773,1.6405,3.6119,1.3093,5.5677ZM1043.2946,213.3858c-8.5804,0-15.552-9.1169-15.552-20.363s6.9716-20.3629,15.552-20.3629,15.5366,9.1168,15.5366,20.3629-6.956,20.363-15.5366,20.363Z" style="fill:#fbd6bc;"/><path d="M1126.8059,241.6877c4.0355-22.0877,3.6466-44.9326,1.0558-62.9292-3.4313-23.8589-15.1489-46.1064-32.9997-62.6514-4.1051-3.8063-15.3921-14.9544-22.6018-22.8934,0,0,4.5842,24.6508,8.4114,36.6184-10.6063-.9585-32.2843-4.9941-47.1136-21.7821l-18.1495-20.5319,10.5993,25.2689c.6807,1.6183,5.0705,11.8218,11.1759,20.2332-9.4412,9.4412-65.6103-21.3168-65.6103-21.3168.1806.6181,3.3409,11.5578,8.8976,21.1153-22.1364-5.2649-50.1281-24.6716-50.4545-24.9008l-10.384-7.2515,3.459,12.183c.1806.639,3.4242,11.7315,12.6483,21.5946-4.3342-.8891-8.6267-2.2227-13.2665-4.0702-8.196-3.2576-17.1145-2.9451-25.1231.889-7.9947,3.8341-14.0792,10.898-16.6909,19.3719-4.3133,14.0167-9.2657,35.7085-11.28,65.3881-1.417-7.5154-2.1601-15.2322-2.1601-23.081,0-34.6597,2.563-70.1668,21.1917-95.012,19.8651-26.4984,57.0044-39.3829,113.5505-39.3829,134.7422,0,134.7422,62.2833,134.7422,134.3949,0,17.1076-3.5285,33.5831-9.8978,48.7458Z" style="fill:#f58250;"/><path d="M1079.5884,311.2574c-9.4165,6.0252-19.4481,10.8992-29.9056,14.5743v51.767c0,4.4007-3.5805,7.9812-7.9812,7.9812h-90.4267c-4.4005,0-7.9811-3.5805-7.9811-7.9812v-56.1204c-8.2177-3.6593-16.0884-8.0916-23.5492-13.281l-15.0158,6.609v222.7311c0,5.1734,4.2113,9.3849,9.3849,9.3849h164.765c.3154,0,.6466-.0158.9463-.0474.0316,0,.0632,0,.0789-.0158.2682-.0158.5204-.0632.7729-.1105.1261-.0158.2366-.0472.347-.0787.1893-.0316.3629-.0787.5362-.1419.0632-.0158.1263-.0316.1737-.0632.2207-.0632.4417-.1419.6623-.2366.347-.1261.6781-.2996,1.0095-.4731.2208-.1263.4259-.2524.631-.3943.2838-.1737.552-.3785.8044-.5838.1103-.0945.2207-.1891.3312-.2996.1105-.0947.2366-.2051.3312-.3154,1.6878-1.7036,2.7445-4.0538,2.7445-6.6246v-222.6682l-8.6594-3.6119ZM1060.1877,500.1079l-50.1425,12.5397c-2.3186,3.0915-6.0094,5.0947-10.1579,5.0947h-.2996c-4.1483,0-7.8392-2.0032-10.1577-5.0947l-50.1425-12.5397v-78.0923l8.5175,2.5552,2.8864-7.2713,49.0385,17.587,52.4295-18.2021,1.6561,7.2557,6.3724-1.9245v78.0923Z" style="fill:#b8e0d2;"/><polygon points="1055.4375 431.0658 1003.573 444.2907 999.7735 445.2562 995.9047 444.2698 945.1307 431.3645 947.8118 424.5784 950.6874 417.2922 999.7249 434.8791 1052.159 416.681 1053.8121 423.9324 1055.4375 431.0658" style="fill:#121b26;"/><path d="M1040.6606,328.6707v47.8871h-88.3448v-51.4045c15.7572,5.773,32.4924,8.7857,49.6535,8.7857,13.2178,0,26.2148-1.7981,38.6913-5.2683Z" style="fill:#fbd6bc;"/><path d="M1049.6828,316.0209v61.5778c0,4.4007-3.5805,7.9812-7.9812,7.9812h-90.4267c-4.4005,0-7.9811-3.5805-7.9811-7.9812v-66.3413c2.9494,1.4354,5.9623,2.7761,9.0221,4.0062v61.2942h88.3448v-57.4455c3.0599-.9306,6.0568-1.9558,9.0221-3.0915Z" style="fill:#121b26;"/><path d="M1242.8708,446.8268l-.3312-.5996-145.9479-137.6513-5.6783-5.3469-2.6657-2.5081v4.3692l-9.9527-4.1639c-3.0285,2.082-6.1357,4.0378-9.3219,5.8833l10.6152,4.4479,8.6594,3.6119v222.6682c0,2.5708-1.0567,4.921-2.7445,6.6246-.0945.1103-.2207.2207-.3312.3154-.1105.1105-.2208.2051-.3312.2996-.2524.2052-.5206.4101-.8044.5838-.2051.1419-.4101.268-.631.3943-.3314.1735-.6625.347-1.0095.4731-.2207.0947-.4417.1735-.6623.2366-.0474.0316-.1105.0474-.1737.0632-.1733.0632-.347.1103-.5362.1419-.1103.0316-.2208.063-.347.0787-.2524.0474-.5047.0947-.7729.1105-.0158.0158-.0474.0158-.0789.0158-.2998.0316-.631.0474-.9463.0474h-164.765c-5.1736,0-9.3849-4.2115-9.3849-9.3849v-222.7311l15.0158-6.609,6.2463-2.7603,6.7193.0474c-3.9906-2.3975-7.8551-4.9999-11.5618-7.776l-9.716,4.2902-6.7035,2.9495-9.0223,4.2746-96.4836,90.9787-96.4679-90.9787-.694-.6469-5.6625-5.3469c4.1798-3.2651,8.2177-6.7825,12.0821-10.5523,8.8802-8.6278,16.467-18.1862,22.6974-28.4071.6624-1.0884,1.3092-2.1769,1.9401-3.2967-2.6183-2.1293-4.795-4.8424-6.3092-7.8707-.41.7571-.8201,1.4984-1.246,2.2554-10.1894,18.076-24.5902,33.7229-41.7827,45.5685-3.0284,2.082-6.1357,4.0378-9.3376,5.8833-6.1515,3.5489-12.6027,6.6404-19.2747,9.2114-2.9653,1.1356-5.9779,2.1767-9.0379,3.0915-12.3029,3.7698-25.3,5.7888-38.6913,5.7888-17.4134,0-34.1801-3.4386-49.6377-9.6375-3.06-1.2302-6.0727-2.5708-9.0222-4.022-3.6278-1.7666-7.1609-3.6908-10.5836-5.7572h-.0158c-3.9906-2.3975-7.8392-4.9999-11.5617-7.776-11.5931-8.691-21.7826-19.1485-30.0792-30.9311-3.4385-19.7477-4.9054-36.1359-4.9054-49.9058,0-45.7418,16.2778-62.5558,31.0729-77.8083,7.8865-8.1389,15.4418-15.9466,19.7321-27.1927,9.3376,16.2462,25.6154,29.7006,47.0194,38.6596,19.2115,8.0285,41.4042,11.8614,64.1962,11.0727,23.1075-.8044,46.5462-6.4511,67.9818-16.3724,1.2302-.552,2.4448-1.1356,3.6594-1.735l.2997-.142c1.388-.8201,2.6971-1.6877,3.9275-2.6183,9.4165-7.0506,14.1169-17.1138,13.3282-28.77-1.0726-15.7258-12.1926-31.0256-27.0508-37.2244-13.7698-5.7414-28.1706-2.9811-40.5998,7.7603l-.2366.2208c-6.2618,6.2462-8.5963,14.4796-6.4353,22.587,2.4448,9.1169,10.2209,16.6563,19.8266,19.2273,5.7572,1.5457,16.609,2.4606,28.1549-6.9086,1.1041-.8991,1.6561-2.1925,1.6561-3.4858,0-1.1515-.4416-2.3187-1.325-3.202-1.6246-1.6247-4.2272-1.7824-6.0095-.347-6.4195,5.1577-13.4543,7.0189-20.1421,5.2209-6.5458-1.7509-11.814-6.7982-13.4387-12.8393-.9306-3.5017-.9937-8.7067,3.9906-13.7541,12.366-10.631,23.7226-9.2114,31.0728-6.1514,11.6405,4.858,20.6942,17.2557,21.5302,29.4956.4417,6.7666-1.388,16.2146-12.6815,22.9024-41.6724,20.3787-89.5909,22.8867-128.219,6.7351-24.2116-10.142-41.1045-26.3252-47.5398-45.5999l-6.467-19.3534-2.3029,20.2841c-1.8138,16.0411-10.426,24.9372-20.4102,35.237-19.0854,19.7005-42.6503,44.0067-29.9531,127.1307.1262.8674.2682,1.7348.4101,2.6182-1.0568.5048-2.1609.915-3.2808,1.2461,1.0569,1.7508,2.161,3.4858,3.2966,5.1894,5.6152,8.4699,12.1925,16.4196,19.7005,23.7225,3.3912,3.2965,6.8928,6.4039,10.5206,9.3219l-3.2335,1.4826c-8.2808,3.8014-15.8835,8.9276-22.5081,15.1896l-134.7648,127.0832-.489.4731-.3471.5996c-6.2146,11.0725-5.6625,23.2179,1.53,33.3124,7.2871,10.2525,20.1895,16.5301,32.9814,16.5301,2.2397,0,4.4638-.2049,6.672-.5992,9.1957-1.6562,25.5523-8.2966,33.0287-34.0699l71.3888-55.2844v130.8216c0,10.1735,8.2493,18.407,18.4071,18.407h164.7651c10.1736,0,18.4071-8.2335,18.4071-18.407v-130.8216l49.1803,38.0919,7.2399,5.5993,14.9686,11.5931c3.5489,12.2399,9.1011,20.158,14.9371,25.2842,3.4069,2.9811,6.8928,5.0159,10.142,6.4197,2.9338,1.2303,5.6625,1.9558,7.9496,2.366,2.2083.3943,4.4322.5992,6.6878.5992,12.7762,0,25.6785-6.2776,32.9657-16.5301,7.1924-10.0946,7.7446-22.2399,1.5299-33.3124l-.3312-.5996-1.4986-1.4194,49.1804-38.0919v130.8216c0,10.1735,8.2337,18.407,18.4072,18.407h164.765c10.1577,0,18.407-8.2335,18.407-18.407v-130.8216l71.3888,55.2844c7.4606,25.7733,23.8174,32.4137,33.0288,34.0699,2.2083.3943,4.4321.5992,6.672.5992,12.7919,0,25.6943-6.2776,32.9815-16.5301,7.1926-10.0946,7.7444-22.2399,1.5141-33.3124ZM501.1756,395.2962l-79.2911,61.4045-.3943,1.4668c-4.4322,16.4512-13.7856,26.751-26.3251,29.0222-11.467,2.0506-24.1012-2.9809-30.7101-12.2871-5.0316-7.0505-5.489-15.221-1.325-23.076l138.0456-130.1907v73.6602ZM557.8008,325.1376c15.7415,5.7888,32.4924,8.8015,49.6377,8.8015,13.2336,0,26.2148-1.7981,38.6913-5.2683v47.8871h-88.329v-51.4202ZM693.7328,537.5375c0,5.1734-4.2114,9.3849-9.385,9.3849h-164.7651c-5.1577,0-9.3692-4.2115-9.3692-9.3849v-222.7311l15.0002-6.609c7.4607,5.1894,15.3472,9.6217,23.5649,13.281v56.1204c0,4.4007,3.5647,7.9812,7.9812,7.9812h90.411c4.4164,0,7.9969-3.5805,7.9969-7.9812v-51.767c1.3092-.4573,2.6499-.9621,4.0379-1.5141,9.0064-3.4386,17.6816-7.8078,25.8678-13.0601l8.6594,3.6119v222.6682ZM839.4755,474.9026c-6.4985,9.1325-18.8014,14.1642-30.0949,12.3818-.2051-.0316-.3943-.0632-.5994-.0947-3.4385-.615-6.6247-1.8453-9.5427-3.6277-7.7604-4.7319-13.5649-13.4387-16.7825-25.3945l-.3943-1.4668-16.2462-12.5713-7.2241-5.5993-55.8366-43.2339v-73.6602l89.8906,84.78,6.5931,6.1989,33.4073,31.5145,4.5111,4.2588c.4574.8832.8675,1.798,1.1988,2.7445l.9306-.7257,1.5142,1.4196c4.164,7.8549,3.7065,16.0255-1.325,23.076ZM895.7064,395.2962l-55.8366,43.2339-34.0539-32.1141,89.8905-84.78v73.6602ZM1234.0064,474.9026c-6.6246,9.3061-19.243,14.3376-30.71,12.2871-12.5397-2.2712-21.893-12.5711-26.3253-29.0222l-.3943-1.4668-79.2911-61.4045v-73.6602l138.0456,130.1907c4.1643,7.8549,3.691,16.0255-1.3249,23.076Z" style="fill:#121b26;"/><polygon points="895.7064 321.636 895.7064 395.2962 839.8699 438.5301 805.8159 406.4161 895.7064 321.636" style="fill:#fbd6bc;"/><path d="M839.4755,474.9026c-6.4985,9.1325-18.8014,14.1642-30.0949,12.3818-.2051-.0316-.3943-.0632-.5994-.0947-3.4385-.615-6.6247-1.8453-9.5427-3.6277-7.7604-4.7319-13.5649-13.4387-16.7825-25.3945l-.3943-1.4668-16.2462-12.5713-7.2241-5.5993-55.8366-43.2339v-73.6602l89.8906,84.78,6.5931,6.1989,33.4073,31.5145,4.5111,4.2588c.4574.8832.8675,1.798,1.1988,2.7445l.9306-.7257,1.5142,1.4196c4.164,7.8549,3.7065,16.0255-1.325,23.076Z" style="fill:#fbd6bc;"/><path d="M646.1298,328.6707v47.8871h-88.329v-51.4202c15.7415,5.7888,32.4924,8.8015,49.6377,8.8015,13.2336,0,26.2148-1.7981,38.6913-5.2683Z" style="fill:#fbd6bc;"/><path d="M1234.0064,474.9026c-6.6246,9.3061-19.243,14.3376-30.71,12.2871-12.5397-2.2712-21.893-12.5711-26.3253-29.0222l-.3943-1.4668-79.2911-61.4045v-73.6602l138.0456,130.1907c4.1643,7.8549,3.691,16.0255-1.3249,23.076Z" style="fill:#fbd6bc;"/><path d="M501.1756,321.636v73.6602l-79.2911,61.4045-.3943,1.4668c-4.4322,16.4512-13.7856,26.751-26.3251,29.0222-11.467,2.0506-24.1012-2.9809-30.7101-12.2871-5.0316-7.0505-5.489-15.221-1.325-23.076l138.0456-130.1907Z" style="fill:#fbd6bc;"/><path d="M867.1573,241.7457c-12.7447-2.0189-20.2843-10.6152-22.2401-19.1485-1.8453-8.0916.8992-18.9591,13.2968-26.9246.3156,15.9466,3.3597,31.4672,8.9434,46.0731Z" style="fill:#fbd6bc;"/><path d="M1126.8129,241.6826c-2.5868,14.1484-6.9717,27.9971-13.7542,40.0478l-7.8707-4.4323c.3314-.5836.6625-1.183.9781-1.7824,15.3471-28.7858,16.7036-67.9975,12.7603-95.4741-3.1388-21.8141-13.8646-42.1613-30.2054-57.3035-.347-.3312-.6939-.6624-1.0409-.9779,1.0882,3.8644,2.3344,7.8077,3.6749,11.2304l2.3188,5.9307-6.3722.2208c-1.1516.0316-22.0351.5994-42.1457-10.4891,1.0884,1.4512,8.4385,8.5805,15.4732,15.221l-11.6087-.5363c-1.8299-.0788-37.2719-1.8927-62.067-17.4292,1.8769,3.5963,4.1011,7.0506,6.5774,9.5427l7.713,7.6972h-10.8992c-16.0412,0-37.3664-10.6783-51.2624-18.8172,3.2649,4.3849,17.0696,21.5977,17.0696,21.5977,0,0-26.2178-2.8593-37.0225-7.1654-5.8202-2.3187-12.1767-2.0821-17.8708.6467-5.7414,2.7445-10.0948,7.8077-11.9717,13.8802-4.3534,14.18-11.6565,44.5273-11.7982,89.2596v1.4353h-4.527v7.24c-.5992,0-1.183-.0158-1.7822-.0316-17.5556-.6625-31.5304-11.1831-35.0635-26.5776-2.8076-12.2715,1.593-28.9436,22.1295-39.3537.3627-.1893.7257-.3785,1.1042-.552l3.9275,8.1388c-1.8455.8833-3.5331,1.8297-5.0633,2.8076v.0157c-12.3976,7.9655-15.1421,18.833-13.2968,26.9246,1.9558,8.5333,9.4954,17.1296,22.2401,19.1485.4417.0788.8676.142,1.3091.1893.0316-9.2272.3629-17.8709.9148-25.9151,2.019-29.6691,6.9717-51.3728,11.2779-65.3792,2.6182-8.4859,8.691-15.5364,16.6876-19.385,8.0128-3.8328,16.9246-4.1325,25.1267-.8833,4.6372,1.8454,8.9274,3.1862,13.265,4.0695-9.2272-9.8581-12.4607-20.9466-12.65-21.5933l-3.4542-12.1768,10.3786,7.2399c.3314.2365,28.3285,19.6374,50.4579,24.9056-5.5519-9.5585-8.7223-20.4892-8.896-21.1201l-1.9401-6.8297c15.7099,14.9686,52.4295,25.9623,67.556,28.1548-6.1201-8.4071-10.5051-18.6122-11.1832-20.2368l-10.5994-25.2683,18.1548,20.5364c14.8265,16.7825,36.4986,20.8204,47.114,21.7826-3.8329-11.9717-8.4227-36.6249-8.4227-36.6249,7.2082,7.9338,18.5017,19.0853,22.6027,22.9025,17.855,16.5459,29.5744,38.7858,32.9973,62.6504,2.6024,17.997,2.9809,40.8364-1.0411,62.9186Z" style="fill:#121b26;"/><path d="M1158.9268,222.5972c-1.9401,8.5017-9.4638,17.0822-22.1612,19.1327,5.5679-14.5901,8.6278-30.0949,8.9434-46.0099,12.3344,7.9654,15.0631,18.8014,13.2178,26.8772Z" style="fill:#fbd6bc;"/><path d="M1167.7441,224.6162c-3.5175,15.3787-17.4609,25.8835-35.0005,26.5618v.0158c-.6152.0158-1.2303.0316-1.8613.0316v-9.038c2.0664,0,4.038-.1578,5.8833-.4575,12.6974-2.0505,20.2211-10.631,22.1612-19.1327,1.8453-8.0758-.8834-18.9119-13.2178-26.8772v-.0158c-1.5457-.9937-3.2649-1.9558-5.1262-2.8549l3.9117-8.1388c.4101.2051.8202.4101,1.2303.6151,20.442,10.4103,24.8109,27.035,22.0193,39.2907Z" style="fill:#121b26;"/><path d="M1053.8153,423.9401l-50.2371,15.1577v65.9156c0,2.0348-1.6562,3.691-3.691,3.691h-.2996c-2.0348,0-3.675-1.6562-3.675-3.691v-65.9156l-48.1077-14.5269-8.5175-2.5552v78.0923l50.1425,12.5397c2.3186,3.0915,6.0094,5.0947,10.1577,5.0947h.2996c4.1485,0,7.8393-2.0032,10.1579-5.0947l50.1425-12.5397v-78.0923l-6.3724,1.9245ZM986.8744,502.7105l-38.5492-9.6531v-58.8807l38.5492,11.6245v56.9092ZM1051.1653,493.0574l-38.565,9.6531v-56.9092l38.565-11.6245v58.8807Z" style="fill:#121b26;"/><polygon points="1051.1653 434.1768 1051.1653 493.0574 1012.6004 502.7105 1012.6004 445.8013 1051.1653 434.1768" style="fill:#fbd6bc;"/><polygon points="986.8744 445.8013 986.8744 502.7105 948.3252 493.0574 948.3252 434.1768 986.8744 445.8013" style="fill:#fbd6bc;"/><path d="M969.1456,192.4707c0,10.9465-6.9558,19.8109-15.5362,19.8109s-15.5366-8.8644-15.5366-19.8109c0-10.9307,6.956-19.8109,15.5366-19.8109s15.5362,8.8802,15.5362,19.8109Z" style="fill:#121b26;"/><path d="M1058.8312,193.0228c0,11.2462-6.956,20.363-15.5366,20.363s-15.552-9.1169-15.552-20.363,6.9716-20.3629,15.552-20.3629,15.5366,9.1168,15.5366,20.3629Z" style="fill:#121b26;"/><path d="M1035.5186,263.891c-.347,1.956-1.4826,3.7066-3.123,4.8109-11.9245,8.0442-23.9907,12.1138-35.8205,12.1138-3.7858,0-7.5869-.4259-11.3093-1.2461-23.565-5.2525-38.8174-25.4893-44.2748-33.9436-1.1042-1.7035-1.4514-3.7856-.9465-5.7414.4733-1.9086,1.7194-3.5489,3.4228-4.5426l3.3597-1.8139.4733.836c2.4131.0631,4.6214,1.2934,5.9463,3.3123,4.5584,6.9875,17.1137,23.6438,35.2369,27.6502,2.6342.5836,5.3315.8834,8.0286.8834,8.9274,0,18.2651-3.2335,27.7605-9.6217,1.1988-.8202,2.6026-1.2461,4.0536-1.2461,2.3186,0,4.5113,1.12,5.8833,2.9813,1.1672,1.5773,1.6405,3.6119,1.3093,5.5677Z" style="fill:#121b26;"/><path d="M578.1007,197.3446c0,10.9307-6.956,19.7951-15.5365,19.7951s-15.5522-8.8644-15.5522-19.7951c0-10.9465,6.9717-19.811,15.5522-19.811s15.5365,8.8645,15.5365,19.811Z" style="fill:#121b26;"/><path d="M666.3981,197.8809c0,11.2462-6.9717,20.363-15.5522,20.363s-15.5364-9.1169-15.5364-20.363c0-11.2304,6.9559-20.3472,15.5364-20.3472s15.5522,9.1169,15.5522,20.3472Z" style="fill:#121b26;"/><path d="M668.6852,250.894c-5.6152,8.691-21.2936,29.4799-45.4895,34.8742-3.8328.8518-7.7287,1.2777-11.6247,1.2777-12.1452,0-24.527-4.1799-36.7827-12.4449-1.6719-1.12-2.8233-2.9022-3.1703-4.8738-.3471-1.9874.1419-4.038,1.3407-5.6627,1.388-1.8769,3.612-3.0125,5.9623-3.0125,1.4669,0,2.8864.4417,4.1167,1.2617,9.7793,6.5774,19.4008,9.9213,28.6123,9.9213,2.7918,0,5.5836-.3156,8.3123-.9148,18.7226-4.1799,31.6092-21.3094,36.278-28.4862,1.3722-2.1135,3.6909-3.3597,6.1988-3.3597,1.2303,0,2.4606.3155,3.5331.8991,1.8297.9937,3.1546,2.6972,3.6594,4.6846.5047,1.9872.1578,4.1167-.9463,5.8359Z" style="fill:#121b26;"/><path d="M777.3194,196.13l-7.8071,3.0006,6.8,4.8829c11.5301,8.2725,16.0518,18.7051,13.0582,30.1727-3.8133,14.6349-19.6289,28.4224-34.5347,30.1033-6.2651.7015-14.8154-.5627-20.0387-10.5994-11.1203-21.3932-7.7307-50.5101-5.008-73.8967,1.9518-16.7464,3.5563-30.5617-.2639-39.0564,9.4116-7.05,14.107-17.1145,13.3221-28.7766-1.0697-15.7184-12.19-31.0271-27.054-37.2227-13.7597-5.7373-28.1723-2.9797-40.5914,7.7585l-.2362.2223c-6.2582,6.2512-8.5989,14.489-6.4318,22.5948,2.4449,9.106,10.2173,16.6491,19.8165,19.2261,5.7581,1.542,16.6144,2.4519,28.1653-6.9181,1.0975-.889,1.6462-2.181,1.6462-3.4729,0-1.1599-.4376-2.3199-1.3266-3.209-1.6253-1.6253-4.2161-1.7851-6.0012-.3473-6.4179,5.1607-13.461,7.0153-20.1499,5.2233-6.536-1.7504-11.8079-6.793-13.4263-12.8428-.9377-3.4938-1.0002-8.7031,3.98-13.7597,12.3705-10.6202,23.7269-9.2102,31.0756-6.1401,11.6412,4.8482,20.6916,17.2535,21.5251,29.499.4515,6.7583-1.3822,16.2046-12.6831,22.9004-41.6611,20.3721-89.5804,22.8865-128.2131,6.7236-24.2132-10.1339-41.0985-26.3177-47.5373-45.5855l-6.4735-19.365-2.2921,20.2888c-1.8129,16.0449-10.4396,24.9425-20.4208,35.2431-19.0802,19.6915-42.6474,43.9949-29.9504,127.1296-29.6101-1.0141-50.0656-10.5716-55.2055-26.0052-4.1536-12.4678,2.6602-27.2416,17.7813-38.5563l6.0498-4.5287-6.8555-3.1812c-26.1788-12.1552-39.3621-25.9774-39.1815-41.0985.257-21.7821,28.6029-44.0088,54.8304-55.4416l19.8582-8.6545h-21.6571c-2.6325,0-11.5371-.4445-15.6837-6.2374-3.1673-4.4245-3.1673-11.3911.007-20.7124l.1042-.3473c4.1536-16.3575,12.7664-28.0195,26.3317-35.646,20.7194-11.6482,52.4897-13.5583,97.1305-5.8345,39.237,6.7861,81.8358,19.8651,119.4128,31.4021,23.2407,7.1333,45.1896,13.8778,62.707,17.9411l.389.0764c18.337,2.6116,29.624,8.3697,33.5414,17.1284,5.8762,13.1415-5.0565,32.0828-13.7944,45.1896l-3.0076,4.5148,4.9871,2.1393c21.0181,9.0018,32.0064,20.1637,31.7772,32.2634-.257,13.6485-14.8571,26.5748-28.471,31.8119Z" style="fill:#f58250;"/><path d="M720.8151,178.7482c1.5615-13.3439,3.1546-27.0665.8202-33.5177-21.4356,9.9213-44.8743,15.568-67.9818,16.3724-22.792.7887-44.9846-3.0442-64.1962-11.0727-21.404-8.9591-37.6818-22.4134-47.0194-38.6596-4.2903,11.2461-11.8456,19.0538-19.7321,27.1927-14.7951,15.2525-31.0729,32.0665-31.0729,77.8083,0,13.7699,1.4669,30.1581,4.9054,49.9058,8.2966,11.7826,18.486,22.2401,30.0792,30.9311,3.7224,2.7761,7.571,5.3785,11.5617,7.776h.0158c3.4227,2.0664,6.9559,3.9906,10.5836,5.7572,2.9495,1.4512,5.9623,2.7919,9.0222,4.022,15.4576,6.1989,32.2243,9.6375,49.6377,9.6375,13.3913,0,26.3883-2.019,38.6913-5.7888,3.06-.9148,6.0726-1.9558,9.0379-3.0915,6.672-2.571,13.1232-5.6625,19.2747-9.2114,3.2019-1.8455,6.3092-3.8014,9.3376-5.8833,17.1925-11.8456,31.5933-27.4925,41.7827-45.5685-10.9307-23.4702-7.508-52.8396-4.7477-76.6095ZM650.8459,177.5336c8.5805,0,15.5522,9.1169,15.5522,20.3472,0,11.2462-6.9717,20.363-15.5522,20.363s-15.5364-9.1169-15.5364-20.363c0-11.2304,6.9559-20.3472,15.5364-20.3472ZM547.012,197.3446c0-10.9465,6.9717-19.811,15.5522-19.811s15.5365,8.8645,15.5365,19.811c0,10.9307-6.956,19.7951-15.5365,19.7951s-15.5522-8.8644-15.5522-19.7951ZM668.6852,250.894c-5.6152,8.691-21.2936,29.4799-45.4895,34.8742-3.8328.8518-7.7287,1.2777-11.6247,1.2777-12.1452,0-24.527-4.1799-36.7827-12.4449-1.6719-1.12-2.8233-2.9022-3.1703-4.8738-.3471-1.9874.1419-4.038,1.3407-5.6627,1.388-1.8769,3.612-3.0125,5.9623-3.0125,1.4669,0,2.8864.4417,4.1167,1.2617,9.7793,6.5774,19.4008,9.9213,28.6123,9.9213,2.7918,0,5.5836-.3156,8.3123-.9148,18.7226-4.1799,31.6092-21.3094,36.278-28.4862,1.3722-2.1135,3.6909-3.3597,6.1988-3.3597,1.2303,0,2.4606.3155,3.5331.8991,1.8297.9937,3.1546,2.6972,3.6594,4.6846.5047,1.9872.1578,4.1167-.9463,5.8359Z" style="fill:#fbd6bc;"/><path d="M814.8224,164.4894c-.2997,16.0254-13.4387,29.5271-27.4451,36.9562,10.2997,9.8266,14.1169,22.0507,10.7256,35.0162-4.7319,18.202-23.6911,34.7164-42.2559,36.7985-1.2934.1419-2.5552.2207-3.817.2207-8.3282,0-15.5681-3.2176-20.852-9.2112-1.6719-1.8771-3.1388-4.0064-4.3849-6.4197-.4417-.8202-.8518-1.6562-1.2303-2.4923-10.9307-23.4702-7.508-52.8396-4.7477-76.6095,1.5615-13.3439,3.1546-27.0665.8202-33.5177-.3943-1.0726-.8991-1.9558-1.53-2.5868l6.3882-6.3881c1.2618,1.2618,2.2555,2.7603,3.0284,4.4796,3.817,8.5017,2.224,22.3188.2681,39.054-2.7287,23.3913-6.1199,52.5084,5,73.8966,5.2367,10.0474,13.7857,11.3093,20.0476,10.5994,14.9055-1.6718,30.7258-15.4575,34.5272-30.0949,2.9968-11.467-1.53-21.9088-13.0601-30.1738l-6.7982-4.8897,7.8077-2.9968c13.6121-5.2367,28.218-18.1706,28.4703-31.8142.2366-12.098-10.7572-23.2652-31.7669-32.2559l-4.9842-2.1451,2.9969-4.5112c8.7382-13.1074,19.6689-32.0508,13.8014-45.1897-3.9276-8.7541-15.2052-14.527-33.5493-17.1296l-.3785-.0788c-17.5238-4.0694-39.4799-10.8045-62.7136-17.9339-37.5714-11.5459-80.1743-24.6217-119.4177-31.4041-44.6377-7.7288-76.4046-5.8203-97.1303,5.836-13.5649,7.6183-22.1769,19.2746-26.3252,35.647l-.1104.347c-3.1704,9.3219-3.1704,16.2778,0,20.71,4.1483,5.7888,13.0442,6.2304,15.6784,6.2304h21.6563l-19.8583,8.6594c-26.2305,11.4354-54.5747,33.6597-54.827,55.4422-.1736,15.1106,12.997,28.9435,39.1802,41.0887l6.8613,3.1862-6.0569,4.5269c-15.1106,11.325-21.9246,26.0886-17.7762,38.5651,5.142,15.426,25.5997,24.9843,55.2056,25.994,1.5142.063,3.0758.0945,4.6373.0945h.6625v9.0379c-1.2934,0-2.5552-.0158-3.8171-.0472-.347,0-.7097-.0158-1.0568-.0316-16.814-.4733-30.9151-3.4544-41.9562-8.8962-11.3408-5.5835-19.0381-13.6277-22.2558-23.3124-4.8265-14.5112,1.0411-30.9152,15.3945-44.0383-25.4577-13.139-38.2654-28.6911-38.0445-46.2781.2839-24.7479,26.6249-45.7734,48.2497-57.682-3.407-1.4827-6.7035-3.7855-9.2273-7.2871-4.937-6.8928-5.3628-16.5617-1.246-28.7069,4.7477-18.5333,15.0474-32.3662,30.6154-41.1203,50.4422-28.3599,146.4684,1.1199,223.6143,24.7953,22.9971,7.0663,44.7323,13.7382,61.9092,17.7447,21.4987,3.0915,35.0634,10.6152,40.3159,22.3504,6.9402,15.5049-1.8612,34.054-11.6247,49.4327,26.9718,12.9023,32.587,27.934,32.3821,38.5335Z" style="fill:#121b26;"/><path d="M653.3154,420.6331c-9.1755-7.1819-25.5398-4.9384-48.6555,6.6681-40.1817-19.9068-53.4968-4.9247-57.3865,2.5491-11.2662,21.678,9.2519,64.5546,52.5938,87.3647l1.41.7433,1.5628-.3125c14.9404-2.9451,28.2209-17.448,34.8056-25.8316,10.2451-13.0304,18.2398-28.7001,21.4001-41.9111,4.1258-17.2535-.8405-25.4357-5.7303-29.2698ZM650.2662,447.7984c-5.647,23.6089-28.4084,55.4555-47.6623,60.6372-17.7396-9.6548-32.3745-23.5534-41.3416-39.2787-7.821-13.725-10.1131-27.186-5.9734-35.139,2.6186-5.0427,7.8488-7.55,15.1072-7.55,8.342,0,19.3719,3.32,32.2078,9.9117l2.0698,1.0557,2.0629-1.0626c27.2693-14.0931,37.4033-11.4537,41.0151-8.6268,5.3553,4.1952,3.8758,14.364,2.5144,20.0526Z" style="fill:#121b26;"/><path d="M688.1729,309.1698c-9.4185,6.029-22.5494,12.9993-33.0099,16.6666v51.7604c0,4.4037-3.5771,7.9877-7.9877,7.9877h-90.4139c-4.4106,0-7.9877-3.584-7.9877-7.9877v-56.1154c-8.21-3.6604-16.0935-8.0988-23.5533-13.2803l-15.01,6.6124v222.725c0,5.1677,4.2092,9.3769,9.3769,9.3769h164.7621c5.1677,0,9.3769-4.2092,9.3769-9.3769v-222.6625l-5.5534-5.7062ZM659.0458,449.903c-3.1603,13.211-11.155,28.8807-21.4001,41.9111-6.5846,8.3836-19.8651,22.8865-34.8056,25.8316l-1.5628.3125-1.41-.7433c-43.342-22.8101-63.86-65.6867-52.5938-87.3647,3.8896-7.4737,17.2048-22.4558,57.3865-2.5491,23.1157-11.6065,39.4801-13.8499,48.6555-6.6681,4.8899,3.8341,9.8561,12.0163,5.7303,29.2698Z" style="fill:#b8e0d2;"/><path d="M650.2662,447.7984c-5.647,23.6089-28.4084,55.4555-47.6623,60.6372-17.7396-9.6548-32.3745-23.5534-41.3416-39.2787-7.821-13.725-10.1131-27.186-5.9734-35.139,2.6186-5.0427,7.8488-7.55,15.1072-7.55,8.342,0,19.3719,3.32,32.2078,9.9117l2.0698,1.0557,2.0629-1.0626c27.2693-14.0931,37.4033-11.4537,41.0151-8.6268,5.3553,4.1952,3.8758,14.364,2.5144,20.0526Z" style="fill:#eac4d5;"/><path d="M56.5799,761.6571c13.3004-3.2742,23.9949-3.5096,32.083-.7028,8.8232,3.0082,12.8335,9.1242,12.0311,18.348-.4006,5.6146-3.8768,11.1965-10.4269,16.7432-6.15,5.2808-13.8029,9.5588-22.9593,12.833-9.5588,3.4088-18.7487,5.0465-27.5713,4.9129-9.7597-.2003-17.6797-2.6064-23.7612-7.2183-6.4838-4.879-11.0629-14.7717-13.7355-29.6769-2.4061-13.5675-2.873-28.707-1.4039-45.4173,1.4696-16.7092,4.5117-30.6796,9.1236-41.9089,5.0131-12.3644,10.9282-18.7475,17.7459-19.1493,9.0891-.5342,15.0721,4.1784,17.9462,14.1368,2.0055,6.8845,2.7072,17.8466,2.1056,32.8854l-.2003,4.5112-.2009,4.4116c-.2003,3.7438-.335,6.5846-.4006,8.5221-.2682,6.3503-.2354,11.296.1002,14.8384.8018,9.3585,3.9759,13.3343,9.5243,11.931ZM24.0963,681.2493c1.4034-1.8051,2.7728-2.8735,4.1105-3.2085-.8692,0-1.7389.2671-2.6064.8024-.6021.4006-1.3383.9688-2.2058,1.7033-1.2031,1.2042-2.3733,2.6743-3.509,4.4116-1.8051,2.7422-3.4088,6.0164-4.8128,9.8259-2.4735,6.9524-3.9776,14.0711-4.5117,21.3551l1.5041-5.214,1.5041-5.2129c1.2031-3.943,2.306-7.3519,3.3081-10.2265,1.2693-3.5424,2.7072-6.8177,4.3114-9.8259,1.0684-1.8697,2.0377-3.3409,2.9075-4.4104ZM76.4315,767.5716c2.9403-.1324,5.3798-.1324,7.3191,0-3.9447-1.5369-8.8905-1.9704-14.8384-1.3027-2.607.335-5.0476.8013-7.3191,1.4034l-1.8046.5014-1.8046.601c-1.4039.4685-2.5736.7696-3.509.9031.9354.2003,2.1713.2003,3.7093,0l3.7099-.5014,3.6092-.5014,3.6092-.5014c2.0711-.2671,4.5117-.4674,7.3191-.6021Z" style="fill:#f58250;"/><path d="M187.1177,672.4261c18.4476,4.5463,30.8454,15.3398,37.1963,32.384,5.6141,15.1055,5.7476,32.1826.4006,51.2323-5.2134,18.5823-13.9704,33.3528-26.2675,44.3139-13.5024,12.0317-27.8723,15.9747-43.1119,11.8314-16.2418-4.3448-28.2729-15.2051-36.0928-32.5844-7.2862-16.0415-9.4903-33.4864-6.6174-52.3358,3.0076-19.3824,10.5932-34.2888,22.759-44.7156,13.8357-11.8302,31.0803-15.2051,51.7337-10.1258ZM153.5306,681.6499c4.6781-1.9376,10.059-3.1406,16.1417-3.6092l-4.2107-.1007-2.1056.1007-2.1051.2003c-2.942.4006-5.682,1.0367-8.2216,1.9047-5.2808,1.8051-10.1258,4.7466-14.5374,8.8232-4.1451,3.8095-7.5539,8.3218-10.2265,13.5347-2.6064,5.0125-4.4784,10.2944-5.6141,15.8412l1.5035-3.9102,1.6043-3.9102,1.8046-3.7099,1.0027-1.804,1.0027-1.8051c3.1406-5.1461,6.5495-9.4241,10.226-12.833,4.0104-3.7427,8.5883-6.6502,13.7355-8.7224ZM158.744,758.5481c.4012,2.5419,1.5041,4.5791,3.3087,6.116,1.8046,1.5381,3.7755,2.1401,5.9151,1.8051,2.1385-.3339,3.8101-1.5369,5.0131-3.6092,1.2031-2.0055,1.6043-4.2769,1.2031-6.8177-.4006-2.5397-1.5035-4.5779-3.3081-6.116-1.8051-1.6048-3.7772-2.2386-5.9157-1.9047-2.1396.4006-3.8095,1.6037-5.0131,3.6092-1.2031,2.0722-1.6037,4.3788-1.2031,6.9173ZM179.6985,768.7747c2.6064-3.5413,3.4417-7.3847,2.5063-11.5292-.7362,4.2101-2.1051,7.6869-4.1105,10.4269-2.2058,2.9414-5.1806,5.1133-8.9228,6.5166,2.0049.1347,3.943-.3339,5.815-1.4034,1.7372-.8681,3.3081-2.2058,4.7121-4.0109Z" style="fill:#f58250;"/><path d="M340.0127,670.5213c4.6119.8013,8.5549,3.7438,11.8308,8.822,3.0076,4.8134,5.2134,11.1636,6.6168,19.0497,2.9409,16.1094,2.3722,33.5215-1.7044,52.235-3.6765,16.5768-9.5916,30.6796-17.7459,42.3095-8.6896,12.2988-18.1137,19.1493-28.2729,20.5527-12.0311,1.6048-23.8614-2.6064-35.4918-12.6327-11.296-9.8248-20.2194-23.2598-26.7688-40.3041-7.2189-18.9818-10.6277-36.5602-10.2265-52.7364.2003-7.2183,1.2359-13.4,3.1078-18.5472,1.8708-5.0793,4.3771-8.6557,7.5199-10.7279,4.9452-3.2085,10.2588-3.2085,15.9408,0,6.1488,3.4088,11.5298,9.9255,16.1417,19.5499,1.8051,3.6771,3.7427,8.3897,5.815,14.1368l1.3038,3.5096,1.2031,3.3081c.9354,2.5408,1.7044,4.5791,2.306,6.116,1.6699,4.2113,3.2413,7.2534,4.7121,9.1231,1.7372,2.2058,3.6092,3.1078,5.6146,2.7072,2.5391-.4663,4.7777-4.4772,6.7175-12.0306.5342-2.2714,1.336-6.0821,2.4061-11.4296l.6015-3.1089.7017-3.1078c.4668-2.4061.9354-4.544,1.4034-6.4159,2.4723-10.2265,5.3798-17.7459,8.723-22.5581,4.5446-6.4171,10.3923-9.0235,17.545-7.8204ZM253.4895,685.3598c.8675-.7356,1.9047-1.2031,3.1078-1.4045-1.2031-.266-2.4061-.0656-3.6092.6021-1.0701.5353-2.0055,1.4034-2.8073,2.6064-1.2704,1.6048-2.306,3.8446-3.1084,6.7181-1.3377,4.6787-1.671,9.4909-1.0022,14.4367l.6015-3.5084.7017-3.5096c.4668-2.74.9682-5.0454,1.5041-6.9173.7345-2.6076,1.5692-4.7454,2.5063-6.4171.6672-1.2031,1.3689-2.0711,2.1056-2.6064ZM313.6445,736.4914c.6677-1.7372,1.0684-3.4745,1.2031-5.2129l-1.3032,2.3054-1.3032,2.2058c-.9371,1.7395-1.8719,3.1078-2.8073,4.1105-1.0701,1.3377-2.2731,2.4061-3.6092,3.2085-.6015.335-1.3711.6689-2.306,1.0027l-1.2031.4006-1.3038.301c1.0684.2003,1.971.2682,2.7072.2003,1.0684-.1335,1.971-.3339,2.7072-.601,1.6699-.5342,3.1734-1.6048,4.5117-3.2085,1.1357-1.4034,2.0377-2.9731,2.7066-4.7126ZM330.4884,682.0505c1.7372-2.3382,3.8095-3.7088,6.2156-4.1105-2.7411-.3339-5.2134.7017-7.4187,3.1078-1.5386,1.6716-2.9754,3.9453-4.3114,6.8177-2.0728,4.7466-3.376,9.9255-3.9102,15.5401l1.4039-3.7088,1.4034-3.7099c1.0684-3.0738,2.0055-5.5139,2.8073-7.3191,1.2031-2.74,2.4718-4.9458,3.8101-6.6174Z" style="fill:#f58250;"/><path d="M432.8528,764.8645c11.3623-4.2758,20.2522-5.1789,26.6687-2.706,6.0815,2.3405,9.0891,7.353,9.0235,15.0388-.0673,5.7493-2.8418,11.4964-8.3212,17.2446-5.2813,5.4132-12.0311,9.8927-20.2528,13.4339-8.4214,3.6771-16.7432,5.6497-24.9643,5.9157-9.0235.266-16.6102-1.6037-22.759-5.6146-6.3508-4.0766-11.4969-11.931-15.44-23.5609-3.6765-10.8275-5.815-23.1931-6.4165-37.0955-.5342-13.9693.6015-26.7694,3.4088-38.3993,3.0738-12.6327,7.6857-21.8565,13.8357-27.6714,6.683-6.2824,14.7711-10.0262,24.2626-11.2293,8.422-1.0027,16.8094,0,25.1651,3.0082,7.9534,2.9414,13.9693,6.9852,18.047,12.1313,4.2763,5.4132,5.2463,10.7619,2.9075,16.0415-1.3377,3.075-3.7099,5.3136-7.1187,6.717-2.4061,1.0027-5.8495,1.6716-10.3267,2.0055l-2.7066.2003-2.8073.0996c-2.2058.1358-3.9776.301-5.3136.5014-3.8774.4685-6.7521,1.4045-8.6223,2.8079-1.271.9371-2.1401,2.2058-2.607,3.8095-.4012,1.5381-.3684,3.0422.1002,4.5123,1.2693,3.4756,4.1105,4.6459,8.5221,3.5084,5.2134-1.3366,9.6907-.9677,13.4345,1.1035,3.6754,2.0043,5.6475,5.0804,5.9157,9.2238.266,4.4784-1.1702,8.1554-4.3114,11.0278-3.4762,3.1429-8.7898,5.0476-15.9413,5.7154-2.4061.2671-4.2107,1.3027-5.4138,3.1078-1.0701,1.7384-1.3377,3.5763-.8018,5.5139.6015,2.0734,1.9376,3.4768,4.0104,4.2113,2.4061.9371,5.3464.7356,8.8226-.6021ZM409.0916,679.1431c2.5391-.7345,5.5467-1.2359,9.0229-1.5041-2.8747-.2003-5.9496,0-9.2238.6021-3.208.6021-6.15,1.5709-8.8226,2.9075-2.7417,1.3377-5.3136,3.1078-7.7203,5.3136-2.0722,1.9398-3.977,4.4784-5.7148,7.6201-2.7411,4.9469-4.8122,10.7947-6.2156,17.5456-1.2031,5.815-1.8391,11.9298-1.9053,18.3469l.6015-4.6119c.2665-1.7372.5342-3.2413.8024-4.5112.6015-3.1418,1.2687-6.116,2.0049-8.9239,1.8046-6.9501,3.943-12.5976,6.4165-16.9435,1.6043-2.8735,3.3415-5.2468,5.214-7.1187,1.9376-1.9376,4.3437-3.7416,7.2183-5.4132,2.4723-1.4045,5.2463-2.5068,8.3218-3.3093ZM427.6394,732.6819l-1.6043.5014-1.5041.5014c.9354.335,2.0383.4685,3.3087.4006.4668,0,1.0356-.0656,1.7044-.2003l.8024-.1007.7017-.0996c.9354-.1335,1.9376-.2331,3.0076-.301,1.2687,0,2.3388.1007,3.2085.301-.6015-.8681-1.6043-1.4701-3.0082-1.8051-1.0022-.266-2.1724-.301-3.509-.0996-.468.0668-1.0022.2003-1.6043.4006l-.8018.2003-.7017.301ZM439.5704,771.7829c4.4772-1.4034,8.4542-2.4718,11.9304-3.2085-1.8046-.3339-3.9096-.3339-6.3163,0-1.8719.2003-3.9442.6689-6.2156,1.4034-.8024.2015-1.8051.5693-3.0082,1.1035l-1.4034.5014-1.4039.601c-1.9393.6689-3.9442,1.2031-6.0153,1.6048,1.9376.4006,4.076.335,6.4165-.2015.8024-.1324,1.8374-.4006,3.1084-.8013l1.4034-.5014,1.5041-.5014Z" style="fill:#f58250;"/><path d="M565.4674,670.5213c8.6879,1.4034,16.8433,8.9907,24.4635,22.7585,6.683,12.232,11.9638,27.3047,15.8412,45.217,3.7416,17.2446,5.2457,32.6183,4.5112,46.119-.8024,14.4378-4.0777,22.9599-9.8248,25.5663-4.8801,2.2058-9.7603,2.2726-14.6381.2003-3.6771-1.6037-7.7876-4.6447-12.3322-9.1231l-2.7072-2.9075-2.7066-2.8079c-2.2058-2.4061-3.8774-4.1434-5.0131-5.2129-3.6765-3.5424-6.7521-5.3147-9.2238-5.3147-2.4061,0-5.3809,1.8731-8.9233,5.6146-1.0022,1.0706-2.6064,2.9075-4.8122,5.515l-2.607,3.0071c-1.0022,1.1374-1.9393,2.173-2.8068,3.1078-4.4789,4.7477-8.723,7.9879-12.7334,9.7252-5.3481,2.3393-10.862,2.4072-16.5423.2015-7.5539-2.8735-10.6277-12.232-9.2238-28.0732,1.2687-14.4367,5.7804-30.9456,13.5347-49.5279,7.8204-18.7136,16.6085-34.0885,26.3682-46.119,10.8937-13.3004,20.6862-19.2828,29.3758-17.9462ZM538.7987,699.4954c3.6092-5.0125,7.1182-9.2894,10.527-12.833l1.5041-1.5041c.5342-.5342,1.0356-.9677,1.5035-1.3027l1.6043-1.4034,1.6043-1.2031c2.8073-1.8708,5.3464-2.9075,7.6195-3.1089-2.2058-.1324-4.9124.636-8.1209,2.3065l-1.8046,1.1023-1.7044,1.3038c-.4685.335-1.0027.7696-1.6043,1.3038l-1.6043,1.4034c-3.5435,3.2085-7.2529,7.4866-11.1285,12.833-3.3432,4.6798-6.3163,9.4592-8.9233,14.3371-2.8068,5.2808-5.1806,10.3612-7.1182,15.2391l4.2107-7.3191c1.6043-2.74,3.0082-5.1461,4.2113-7.2183,3.6092-5.815,6.6824-10.4597,9.2238-13.9364ZM554.9403,753.4349c1.5369.6021,3.1406.4018,4.8122-.601,1.6699-1.0684,2.9075-2.6064,3.7099-4.6119.8018-2.0711.9682-4.0438.5014-5.9157-.5359-1.8697-1.5714-3.1078-3.1084-3.7088-1.5381-.6021-3.1423-.4018-4.8122.601-1.6716,1.0027-2.9075,2.5408-3.7099,4.6119-.8018,2.0055-.9365,3.9442-.4006,5.815.4668,1.8719,1.469,3.1429,3.0076,3.8095ZM565.7684,759.1502c2.8073-2.2058,4.4438-4.9129,4.9124-8.1215-2.1396,2.9426-4.1451,5.1484-6.0153,6.6174-2.3405,1.8051-5.0131,3.075-8.0207,3.8095,1.5369.4018,3.1406.369,4.8122-.0996,1.4696-.4018,2.9075-1.1363,4.3114-2.2058Z" style="fill:#f58250;"/><path d="M718.763,673.7299c8.6228,1.2031,15.4055,9.2906,20.3535,24.2626,4.8122,14.5046,6.8833,32.1826,6.2156,53.0363-1.2031,38.3665-12.567,59.0199-34.0885,61.9602-6.2156.8024-12.4663-.6666-18.7475-4.4116-5.815-3.5413-10.7958-8.487-14.9392-14.8373-3.6092-5.5479-6.6513-10.694-9.1231-15.4405-.9371-1.804-1.8391-3.6092-2.7072-5.4143-.5365-1.1352-1.1035-2.4389-1.7044-3.9102-1.0706-2.4718-1.7723-3.9091-2.1062-4.3109-.4674-.6666-1.1363-.902-2.0043-.7017-.8692.2682-1.0027,3.0422-.4018,8.3218l.301,1.9047.2003,1.9047c.2015,1.6716.3667,3.075.5014,4.2113.4018,3.4756.6349,6.5166.7017,9.1231.4018,16.3097-5.3804,24.4289-17.3441,24.3633-7.7548-.0656-13.7701-6.6174-18.047-19.6507-3.8774-11.6956-5.815-26.4684-5.815-44.315,0-17.4449,1.8051-33.2181,5.4143-47.3221,3.943-15.2391,9.1887-24.8647,15.7404-28.8745,8.2211-4.9458,16.5429-4.5451,24.9643,1.2031,6.8833,4.6798,13.0344,12.1992,18.4476,22.5581,1.6705,3.3432,3.3749,7.2183,5.1133,11.6299.6021,1.6048,1.2687,3.4768,2.0055,5.6146l.902,2.6064.4018,1.2031.4006,1.2042c1.2687,3.6759,2.2714,6.2156,3.0082,7.619,1.0016,1.9398,1.9704,2.8747,2.9075,2.8079,1.6693-.1335,2.5713-1.4701,2.706-4.0109.1335-2.2714-.4006-7.4187-1.6037-15.4394-2.0722-14.7038-1.0695-25.065,3.0082-31.0803,3.2742-4.7454,8.3874-6.683,15.3387-5.815ZM645.2736,680.9482c2.2714-1.7372,4.7454-2.7072,7.4187-2.9075-2.5408-.2003-5.18.5014-7.92,2.1051-2.0055,1.271-3.9102,3.3093-5.7142,6.116-2.2058,3.5435-4.2792,8.5889-6.2167,15.1395-1.4034,5.2808-2.4401,10.6272-3.1078,16.0415-.8024,5.7493-1.2031,11.1625-1.2031,16.2418l1.3038-8.0207c.4663-3.0082.902-5.6803,1.3027-8.0207,1.2687-6.4827,2.4718-11.7306,3.6092-15.7404.7356-2.6732,1.5369-5.214,2.4061-7.6201.8681-2.4061,1.9387-4.845,3.2085-7.3191,1.4701-2.74,3.1078-4.7454,4.9129-6.0153ZM709.5392,732.4815c.8024-1.8051,1.1691-3.8434,1.1035-6.116-.0679-1.9376-.4006-3.8763-1.0027-5.815l-.5014,5.815c-.2682,2.2058-.7356,3.977-1.4034,5.3136-.8024,1.6037-1.9398,2.9414-3.4088,4.0098-1.3377,1.0027-3.0422,1.7723-5.1133,2.3065,2.0711.4006,4.0766.0679,6.0153-1.0027,1.8051-.9348,3.2413-2.4389,4.3109-4.5112ZM711.5447,683.2536c.6677-.7345,2.0055-1.3683,4.0109-1.9047-1.9398-.4663-3.6092-.2003-5.0137.8024-1.2031.8024-2.173,2.2397-2.9075,4.3109-.4685,1.5381-.7356,3.1757-.8013,4.9129-.0679,1.7384.0656,3.376.4006,4.9129l.601-2.4061.5014-2.3065c.4018-1.8708.8024-3.3738,1.2031-4.5112.5342-1.7372,1.2042-3.0082,2.0055-3.8106Z" style="fill:#f58250;"/><path d="M780.6236,671.1223c6.8177-1.9376,15.3726-.7345,25.6659,3.6092,10.4925,4.4795,20.2177,11.1297,29.1755,19.9517,9.9583,9.6924,17.1099,20.4203,21.4558,32.1837,5.0125,13.4351,5.8478,27.0037,2.5057,40.7047-1.9387,8.0207-6.451,15.5752-13.5347,22.6589-6.5517,6.6174-14.5046,12.0306-23.8619,16.2418-9.2238,4.2113-18.3141,6.6174-27.2696,7.2183-9.4253.6021-17.3453-.9348-23.7623-4.6119-6.0821-3.5413-10.4936-12.4312-13.2336-26.6687-2.5408-13.0333-3.2742-27.9374-2.2058-44.7156,1.0684-16.9763,3.7099-31.5137,7.92-43.6122,4.6119-13.3672,10.3273-21.0201,17.145-22.9599ZM781.4249,679.6444c.6677-.5342,1.5697-.9348,2.7072-1.2031l1.5041-.301,1.5041-.2003c-1.0695-.0656-2.1051-.0656-3.1078,0-1.2031.1347-2.2409.4357-3.1078.9031-1.4713.8692-3.0082,2.3054-4.6119,4.3109-2.0734,2.8068-3.9781,6.5166-5.7154,11.1285-1.4713,3.9442-2.6415,7.9551-3.5096,12.0306-.8013,4.1456-1.3706,8.2222-1.7044,12.232l.8024-3.0082.8024-3.0071c.3339-1.5369.8681-3.5096,1.6037-5.9157,1.5369-5.1461,2.7728-9.0235,3.7099-11.6299,1.6037-4.2769,3.3409-7.92,5.214-10.9282,1.3355-2.0055,2.6393-3.4745,3.9091-4.4116ZM803.6831,759.8519c2.0055,1.0027,4.0426.8364,6.116-.5014,2.2714-1.4034,3.3409-3.3738,3.2074-5.9157-.1347-2.8068-1.3377-5.5796-3.6092-8.3207-2.2726-2.8735-4.278-3.943-6.0153-3.2085-1.5381.601-2.3054,3.4756-2.3054,8.6217-.0679,5.214.8013,8.3218,2.6064,9.3245ZM820.527,759.0495c.601-2.0711.6666-4.0755.2003-6.0153-.6021,4.0777-2.173,7.3858-4.7126,9.9255-2.5408,2.6743-5.815,4.3788-9.8248,5.1133,1.9376.4018,3.9419.2682,6.0153-.4006,1.9376-.6677,3.6748-1.7701,5.2129-3.3093,1.4701-1.6037,2.5068-3.3738,3.1089-5.3136Z" style="fill:#f58250;"/><path d="M968.409,761.6571c13.3004-3.2742,23.9955-3.5096,32.083-.7028,8.8232,3.0082,12.833,9.1242,12.0317,18.348-.4018,5.6146-3.8774,11.1965-10.4269,16.7432-6.1511,5.2808-13.8029,9.5588-22.9599,12.833-9.5588,3.4088-18.7487,5.0465-27.5707,4.9129-9.7603-.2003-17.6803-2.6064-23.7623-7.2183-6.4838-4.879-11.0629-14.7717-13.735-29.6769-2.4061-13.5675-2.8735-28.707-1.4034-45.4173,1.469-16.7092,4.5112-30.6796,9.1231-41.9089,5.0137-12.3644,10.9282-18.7475,17.7459-19.1493,9.0891-.5342,15.0716,4.1784,17.9462,14.1368,2.0055,6.8845,2.7072,17.8466,2.1062,32.8854l-.2015,4.5112-.2003,4.4116c-.2003,3.7438-.335,6.5846-.4006,8.5221-.2682,6.3503-.2354,11.296.0996,14.8384.8024,9.3585,3.9759,13.3343,9.5249,11.931ZM935.9253,681.2493c1.4034-1.8051,2.7728-2.8735,4.1105-3.2085-.8692,0-1.7384.2671-2.6064.8024-.6021.4006-1.3377.9688-2.2058,1.7033-1.2031,1.2042-2.3733,2.6743-3.5096,4.4116-1.804,2.7422-3.4088,6.0164-4.8122,9.8259-2.474,6.9524-3.977,14.0711-4.5112,21.3551l1.503-5.214,1.5041-5.2129c1.2031-3.943,2.3065-7.3519,3.3093-10.2265,1.2687-3.5424,2.7072-6.8177,4.3109-9.8259,1.0684-1.8697,2.0383-3.3409,2.9075-4.4104ZM988.2611,767.5716c2.9403-.1324,5.3792-.1324,7.3179,0-3.9442-1.5369-8.8899-1.9704-14.8384-1.3027-2.6064.335-5.0465.8013-7.3179,1.4034l-1.8051.5014-1.8051.601c-1.4034.4685-2.5736.7696-3.5084.9031.9348.2003,2.1707.2003,3.7099,0l3.7088-.5014,3.6103-.5014,3.6092-.5014c2.0711-.2671,4.5112-.4674,7.3191-.6021Z" style="fill:#f58250;"/><path d="M1085.8116,764.8645c11.3628-4.2758,20.2528-5.1789,26.6698-2.706,6.0809,2.3405,9.0891,7.353,9.0235,15.0388-.0679,5.7493-2.8418,11.4964-8.3218,17.2446-5.2808,5.4132-12.0317,9.8927-20.2528,13.4339-8.4214,3.6771-16.7432,5.6497-24.9643,5.9157-9.0235.266-16.6096-1.6037-22.7585-5.6146-6.3514-4.0766-11.4975-11.931-15.4405-23.5609-3.6759-10.8275-5.815-23.1931-6.4159-37.0955-.5342-13.9693.601-26.7694,3.4088-38.3993,3.0727-12.6327,7.6846-21.8565,13.8357-27.6714,6.6819-6.2824,14.7705-10.0262,24.2626-11.2293,8.4214-1.0027,16.8088,0,25.1646,3.0082,7.954,2.9414,13.9693,6.9852,18.047,12.1313,4.2769,5.4132,5.2457,10.7619,2.9075,16.0415-1.3377,3.075-3.7099,5.3136-7.1187,6.717-2.4061,1.0027-5.8489,1.6716-10.3261,2.0055l-2.7072.2003-2.8079.0996c-2.2058.1358-3.977.301-5.3136.5014-3.8774.4685-6.7521,1.4045-8.6217,2.8079-1.271.9371-2.1401,2.2058-2.6076,3.8095-.4006,1.5381-.3678,3.0422.1007,4.5123,1.2687,3.4756,4.1105,4.6459,8.5221,3.5084,5.214-1.3366,9.6912-.9677,13.4351,1.1035,3.6748,2.0043,5.6475,5.0804,5.9146,9.2238.2671,4.4784-1.1702,8.1554-4.3109,11.0278-3.4756,3.1429-8.7903,5.0476-15.9408,5.7154-2.4061.2671-4.2113,1.3027-5.4143,3.1078-1.0695,1.7384-1.3377,3.5763-.8024,5.5139.6021,2.0734,1.9387,3.4768,4.0109,4.2113,2.4061.9371,5.3464.7356,8.822-.6021ZM1062.0504,679.1431c2.5397-.7345,5.5479-1.2359,9.0235-1.5041-2.8747-.2003-5.9496,0-9.2238.6021-3.2085.6021-6.15,1.5709-8.8232,2.9075-2.7411,1.3377-5.3136,3.1078-7.7197,5.3136-2.0722,1.9398-3.977,4.4784-5.7142,7.6201-2.7422,4.9469-4.8122,10.7947-6.2167,17.5456-1.2031,5.815-1.8391,11.9298-1.9047,18.3469l.6021-4.6119c.266-1.7372.5342-3.2413.8013-4.5112.6021-3.1418,1.2698-6.116,2.0055-8.9239,1.8051-6.9501,3.943-12.5976,6.4171-16.9435,1.6037-2.8735,3.3409-5.2468,5.2129-7.1187,1.9376-1.9376,4.3448-3.7416,7.2195-5.4132,2.4718-1.4045,5.2457-2.5068,8.3207-3.3093ZM1080.5987,732.6819l-1.6037.5014-1.5041.5014c.9348.335,2.0383.4685,3.3081.4006.4674,0,1.0356-.0656,1.7044-.2003l.8024-.1007.7017-.0996c.9348-.1335,1.9376-.2331,3.0082-.301,1.2687,0,2.3382.1007,3.2074.301-.601-.8681-1.6037-1.4701-3.0071-1.8051-1.0027-.266-2.173-.301-3.5096-.0996-.4685.0668-1.0027.2003-1.6037.4006l-.8024.2003-.7017.301ZM1092.5297,771.7829c4.4772-1.4034,8.4542-2.4718,11.931-3.2085-1.8051-.3339-3.9102-.3339-6.3163,0-1.8719.2003-3.9453.6689-6.2167,1.4034-.8013.2015-1.804.5693-3.0071,1.1035l-1.4045.5014-1.4034.601c-1.9387.6689-3.9442,1.2031-6.0153,1.6048,1.9376.4006,4.0766.335,6.4171-.2015.8013-.1324,1.8368-.4006,3.1078-.8013l1.4034-.5014,1.5041-.5014Z" style="fill:#f58250;"/><path d="M1201.211,670.5213c8.6874,1.4034,16.8428,8.9907,24.4629,22.7585,6.683,12.232,11.9638,27.3047,15.8412,45.217,3.7416,17.2446,5.2457,32.6183,4.5112,46.119-.8024,14.4378-4.0777,22.9599-9.8248,25.5663-4.8801,2.2058-9.7603,2.2726-14.6381.2003-3.6771-1.6037-7.7876-4.6447-12.3316-9.1231l-2.7072-2.9075-2.7072-2.8079c-2.2058-2.4061-3.8774-4.1434-5.0137-5.2129-3.6759-3.5424-6.7509-5.3147-9.2238-5.3147-2.4061,0-5.3804,1.8731-8.9228,5.6146-1.0027,1.0706-2.6064,2.9075-4.8122,5.515l-2.6064,3.0071c-1.0027,1.1374-1.9398,2.173-2.8079,3.1078-4.4784,4.7477-8.7224,7.9879-12.7322,9.7252-5.3487,2.3393-10.8626,2.4072-16.5429.2015-7.5545-2.8735-10.6272-12.232-9.2238-28.0732,1.2687-14.4367,5.7799-30.9456,13.5347-49.5279,7.8204-18.7136,16.6085-34.0885,26.3688-46.119,10.8931-13.3004,20.6862-19.2828,29.3758-17.9462ZM1174.5412,699.4954c3.6103-5.0125,7.1187-9.2894,10.5276-12.833l1.5041-1.5041c.5342-.5342,1.0356-.9677,1.5041-1.3027l1.6037-1.4034,1.6037-1.2031c2.8079-1.8708,5.3475-2.9075,7.6201-3.1089-2.2058-.1324-4.9129.636-8.1203,2.3065l-1.8051,1.1023-1.7044,1.3038c-.4685.335-1.0027.7696-1.6037,1.3038l-1.6048,1.4034c-3.5435,3.2085-7.2534,7.4866-11.1285,12.833-3.3432,4.6798-6.3163,9.4592-8.9228,14.3371-2.8079,5.2808-5.1812,10.3612-7.1187,15.2391l4.2113-7.3191c1.6037-2.74,3.0071-5.1461,4.2101-7.2183,3.6092-5.815,6.683-10.4597,9.2238-13.9364ZM1190.6834,753.4349c1.5369.6021,3.1406.4018,4.8122-.601,1.6705-1.0684,2.9075-2.6064,3.7099-4.6119.8024-2.0711.9677-4.0438.5014-5.9157-.5365-1.8697-1.572-3.1078-3.1078-3.7088-1.5392-.6021-3.1429-.4018-4.8134.601-1.6716,1.0027-2.9075,2.5408-3.7088,4.6119-.8024,2.0055-.9371,3.9442-.4018,5.815.4674,1.8719,1.4701,3.1429,3.0082,3.8095ZM1201.5109,759.1502c2.8079-2.2058,4.4444-4.9129,4.9129-8.1215-2.1401,2.9426-4.1445,5.1484-6.0153,6.6174-2.3405,1.8051-5.0125,3.075-8.0207,3.8095,1.5369.4018,3.1406.369,4.8122-.0996,1.469-.4018,2.9075-1.1363,4.3109-2.2058Z" style="fill:#f58250;"/><path d="M1360.3222,770.5798c3.6748,6.2835,5.5139,12.3667,5.5139,18.2473,0,5.2808-1.4034,10.0251-4.2113,14.2363-2.5408,3.8095-5.8489,6.6841-9.9255,8.6228-4.0098,1.9387-7.9551,2.5385-11.8302,1.804-9.1582-1.7372-15.9759-7.018-20.4531-15.8412-.7368-1.5358-1.5381-3.3409-2.4061-5.4132l-1.0027-2.7072-1.0027-2.5068c-1.6037-4.0755-3.1078-6.9173-4.5112-8.5221-2.3405-2.6721-4.1105-3.2085-5.3136-1.6037-1.6716,2.2058-2.6743,8.4565-3.0082,18.7487-.2003,5.5479-1.9726,9.9594-5.3136,13.2336-3.1429,3.0082-6.9852,4.4467-11.5303,4.3109-4.8122-.1324-9.2578-1.9704-13.3343-5.5139-4.6119-4.0098-8.0547-9.5577-10.3261-16.6425-3.8106-11.6967-5.7821-24.6972-5.9157-39.0014-.1335-14.7705,1.7701-28.3391,5.7142-40.7047,4.3448-13.5686,10.6283-23.8947,18.8494-30.9807,9.2238-8.0207,20.2856-11.3289,33.1853-9.9255,9.8915,1.0706,18.1477,4.278,24.7639,9.6256,6.0164,4.9469,10.2265,11.2281,12.6327,18.8482,2.2058,7.2862,2.5068,14.9052.9031,22.8592-1.6716,8.0207-5.1484,15.2742-10.4269,21.7557-1.1374,1.4045-1.3717,2.8079-.7028,4.2113.4674,1.0027,1.838,2.5736,4.1117,4.7126l.8013.7017.8024.7017c.6677.601,1.2687,1.1374,1.804,1.6037,1.4045,1.3377,2.6732,2.6415,3.8106,3.9102,3.1406,3.4768,5.9146,7.2183,8.3218,11.2293ZM1293.5486,681.8502c4.1445-2.1379,8.9239-3.4417,14.3371-3.9102-2.3405-.2003-4.879-.0996-7.619.301-2.5408.4685-5.0137,1.237-7.4198,2.3054-4.4116,1.8731-8.5221,4.948-12.3316,9.2249-3.2085,3.8095-5.9157,8.1882-8.1215,13.1329-2.0722,4.7477-3.5763,9.5928-4.5112,14.5385,2.0055-5.5479,3.9759-10.1926,5.9157-13.9364,2.6064-5.0125,5.3464-9.157,8.2211-12.4323,3.4745-4.0098,7.3191-7.0837,11.5292-9.2238ZM1303.7752,724.3601c-.0668,2.1401.5342,3.9781,1.8051,5.5139,1.2031,1.6048,2.7072,2.4412,4.5112,2.5068,1.7372.0679,3.2742-.6338,4.6119-2.1051,1.3366-1.4701,2.0383-3.2742,2.1062-5.4143.0656-2.1379-.5014-4.0098-1.7044-5.6146-1.2031-1.5369-2.7072-2.3382-4.5123-2.4061-1.804-.0656-3.376.636-4.7115,2.1051-1.271,1.4713-1.9726,3.2764-2.1062,5.4143ZM1321.2212,736.291c3.0071-3.3409,4.1434-7.0837,3.4077-11.2293-1.0016,4.0777-2.6404,7.3541-4.9118,9.8259-2.474,2.7411-5.6497,4.5112-9.5249,5.3136,1.9376.4006,3.9102.2354,5.9157-.5014,1.8697-.7345,3.5741-1.8708,5.1133-3.4088Z" style="fill:#f58250;"/><path d="M1474.1156,673.7299c8.6228,1.2031,15.4055,9.2906,20.3535,24.2626,4.8122,14.5046,6.8833,32.1826,6.2156,53.0363-1.2031,38.3665-12.567,59.0199-34.0885,61.9602-6.2156.8024-12.4663-.6666-18.7475-4.4116-5.815-3.5413-10.7958-8.487-14.9392-14.8373-3.6092-5.5479-6.6513-10.694-9.1231-15.4405-.9371-1.804-1.8391-3.6092-2.7072-5.4143-.5365-1.1352-1.1035-2.4389-1.7044-3.9102-1.0706-2.4718-1.7723-3.9091-2.1062-4.3109-.4674-.6666-1.1363-.902-2.0043-.7017-.8692.2682-1.0027,3.0422-.4018,8.3218l.301,1.9047.2003,1.9047c.2015,1.6716.3667,3.075.5014,4.2113.4018,3.4756.6349,6.5166.7017,9.1231.4018,16.3097-5.3804,24.4289-17.3441,24.3633-7.7548-.0656-13.7701-6.6174-18.047-19.6507-3.8774-11.6956-5.815-26.4684-5.815-44.315,0-17.4449,1.8051-33.2181,5.4143-47.3221,3.943-15.2391,9.1887-24.8647,15.7404-28.8745,8.2211-4.9458,16.5429-4.5451,24.9643,1.2031,6.8833,4.6798,13.0344,12.1992,18.4476,22.5581,1.6705,3.3432,3.3749,7.2183,5.1133,11.6299.6021,1.6048,1.2687,3.4768,2.0055,5.6146l.902,2.6064.4018,1.2031.4006,1.2042c1.2687,3.6759,2.2714,6.2156,3.0082,7.619,1.0016,1.9398,1.9704,2.8747,2.9075,2.8079,1.6693-.1335,2.5713-1.4701,2.706-4.0109.1335-2.2714-.4006-7.4187-1.6037-15.4394-2.0722-14.7038-1.0695-25.065,3.0082-31.0803,3.2742-4.7454,8.3874-6.683,15.3387-5.815ZM1400.6262,680.9482c2.2714-1.7372,4.7454-2.7072,7.4187-2.9075-2.5408-.2003-5.18.5014-7.92,2.1051-2.0055,1.271-3.9102,3.3093-5.7142,6.116-2.2058,3.5435-4.2792,8.5889-6.2167,15.1395-1.4034,5.2808-2.4401,10.6272-3.1078,16.0415-.8024,5.7493-1.2031,11.1625-1.2031,16.2418l1.3038-8.0207c.4663-3.0082.902-5.6803,1.3027-8.0207,1.2687-6.4827,2.4718-11.7306,3.6092-15.7404.7356-2.6732,1.5369-5.214,2.4061-7.6201.8681-2.4061,1.9387-4.845,3.2085-7.3191,1.4701-2.74,3.1078-4.7454,4.9129-6.0153ZM1464.8918,732.4815c.8024-1.8051,1.1691-3.8434,1.1035-6.116-.0679-1.9376-.4006-3.8763-1.0027-5.815l-.5014,5.815c-.2682,2.2058-.7356,3.977-1.4034,5.3136-.8024,1.6037-1.9398,2.9414-3.4088,4.0098-1.3377,1.0027-3.0422,1.7723-5.1133,2.3065,2.0711.4006,4.0766.0679,6.0153-1.0027,1.8051-.9348,3.2413-2.4389,4.3109-4.5112ZM1466.8973,683.2536c.6677-.7345,2.0055-1.3683,4.0109-1.9047-1.9398-.4663-3.6092-.2003-5.0137.8024-1.2031.8024-2.173,2.2397-2.9075,4.3109-.4685,1.5381-.7356,3.1757-.8013,4.9129-.0679,1.7384.0656,3.376.4006,4.9129l.601-2.4061.5014-2.3065c.4018-1.8708.8024-3.3738,1.2031-4.5112.5342-1.7372,1.2042-3.0082,2.0055-3.8106Z" style="fill:#f58250;"/><path d="M74.035,842.59l-9.1582,74.1458h-4.8122c-.7939,0-1.4317-.146-1.9144-.4403-.4833-.292-.949-.7504-1.3972-1.3706l-31.976-56.7089c-.0696.6904-.1217,1.3366-.1556,1.9398-.0345.6044-.0866,1.1827-.1551,1.7338l-6.6745,54.846h-8.5374l9.1067-74.1458h5.0188c.8618,0,1.4826.103,1.8629.3101.3791.2071.7758.6564,1.19,1.3457l32.0281,56.6568c.0685-.7934.129-1.5516.1811-2.276.0515-.7243.1115-1.3977.1811-2.0179l6.6745-54.0187h8.5374Z" style="fill:#121b26;"/><path d="M130.3811,864.322l-6.3124,52.4138h-4.5531c-2.2431,0-3.3636-1.1035-3.3636-3.3115l.7764-9.5724c-2.7604,4.4851-5.8727,7.8736-9.3392,10.1677-3.4671,2.2941-7.0288,3.4405-10.6849,3.4405-2.2081,0-4.1569-.4403-5.8466-1.3196-1.6908-.8794-3.062-2.1639-4.1134-3.8548-1.0531-1.6897-1.7684-3.7586-2.1475-6.2088-.3797-2.4491-.3622-5.2593.0515-8.4338l3.9328-33.3211h9.1582l-3.9323,33.3211c-.4838,4.1049-.2331,7.1584.7498,9.1582.9835,2.0009,2.8373,3.0014,5.5626,3.0014,1.5862,0,3.2249-.4312,4.9152-1.2936,1.6897-.8624,3.3115-2.087,4.8637-3.6737s3.0093-3.5096,4.3725-5.7697c1.3621-2.259,2.5261-4.7681,3.4926-7.5284l3.2595-27.2153h9.1582Z" style="fill:#121b26;"/><path d="M154.0269,878.9125c1.379-2.9312,2.8713-5.4754,4.4755-7.6314,1.6037-2.156,3.2855-3.8457,5.0448-5.0714,1.7593-1.2234,3.5701-1.9659,5.433-2.225,1.8623-.258,3.7591.026,5.6916.8545l-1.6558,8.8481c-4.4846-1.7938-8.4429-1.1385-11.8749,1.9659-3.4326,3.1044-6.2179,8.71-8.3563,16.8156l-2.8973,24.2671h-9.0031l6.3124-52.4659h4.5531c2.1039,0,3.1565,1.0344,3.1565,3.1044l-.8794,11.5382Z" style="fill:#121b26;"/><path d="M183.5187,906.8533v-.8024c0-.3271.0255-.8013.0775-1.4226.0515-.6213.1375-1.4305.2586-2.4321.1205-.9993.2846-2.3099.4917-3.9317l3.208-26.233h-5.8472c-.4833,0-.8715-.1641-1.164-.4923-.2937-.3271-.4057-.8352-.3361-1.5256l.4137-3.6737,8.0717-1.0865,3.9323-16.1954c.1726-.5172.4403-.9394.8024-1.2676s.8188-.4923,1.3711-.4923h4.8117l-2.2245,18.0583h13.7633l-.7764,6.6751h-13.8148l-3.1565,25.7667c-.1732,1.4147-.3107,2.5532-.4142,3.4156-.103.8624-.1811,1.5516-.2326,2.0688s-.0866.8805-.1036,1.0865c-.0175.2071-.026.3622-.026.4663,0,1.7587.4142,3.0614,1.2421,3.9068s1.9313,1.2676,3.3115,1.2676c.9314,0,1.7333-.1302,2.4061-.3882.6723-.2592,1.2676-.5432,1.7848-.8545.5172-.3101.9484-.5942,1.2936-.8533.3446-.2592.6377-.3882.8794-.3882.3107,0,.5432.0702.6989.2071.1551.1381.3016.3622.4397.6723l1.9664,4.398c-1.6908,1.4837-3.6143,2.6483-5.7697,3.4926-2.156.8454-4.3199,1.2676-6.4934,1.2676-3.346,0-5.9762-.9133-7.8906-2.7422-1.9144-1.8278-2.9063-4.4829-2.9748-7.9676Z" style="fill:#121b26;"/><path d="M266.5629,864.322l-6.3124,52.4138h-4.5531c-2.2431,0-3.3636-1.1035-3.3636-3.3115l.7764-9.5724c-2.7604,4.4851-5.8727,7.8736-9.3392,10.1677-3.4671,2.2941-7.0288,3.4405-10.6849,3.4405-2.2081,0-4.1569-.4403-5.8466-1.3196-1.6908-.8794-3.062-2.1639-4.1134-3.8548-1.0531-1.6897-1.7684-3.7586-2.1475-6.2088-.3797-2.4491-.3622-5.2593.0515-8.4338l3.9328-33.3211h9.1582l-3.9323,33.3211c-.4838,4.1049-.2331,7.1584.7498,9.1582.9835,2.0009,2.8373,3.0014,5.5626,3.0014,1.5862,0,3.2249-.4312,4.9152-1.2936,1.6897-.8624,3.3115-2.087,4.8637-3.6737s3.0093-3.5096,4.3725-5.7697c1.3621-2.259,2.5261-4.7681,3.4926-7.5284l3.2595-27.2153h9.1582Z" style="fill:#121b26;"/><path d="M290.2092,878.9125c1.379-2.9312,2.8713-5.4754,4.4755-7.6314,1.6037-2.156,3.2855-3.8457,5.0448-5.0714,1.7593-1.2234,3.5701-1.9659,5.433-2.225,1.8623-.258,3.7591.026,5.6916.8545l-1.6558,8.8481c-4.4846-1.7938-8.4429-1.1385-11.8749,1.9659-3.4326,3.1044-6.2179,8.71-8.3563,16.8156l-2.8973,24.2671h-9.0031l6.3124-52.4659h4.5531c2.1039,0,3.1565,1.0344,3.1565,3.1044l-.8794,11.5382Z" style="fill:#121b26;"/><path d="M331.4464,864.322l-6.3129,52.4138h-9.0546l6.3124-52.4138h9.0552ZM334.9645,847.8674c0,.8975-.1811,1.7338-.5432,2.5102-.3622.7753-.8454,1.4656-1.4486,2.0688-.6038.6044-1.2936,1.0786-2.0694,1.4237-.7764.3452-1.5782.5172-2.4061.5172-.7939,0-1.5703-.172-2.3286-.5172-.7588-.3452-1.4226-.8194-1.9919-1.4237-.5693-.6032-1.0271-1.2936-1.3711-2.0688-.3452-.7764-.5178-1.6128-.5178-2.5102,0-.8964.1726-1.7406.5178-2.5351.3441-.7934.8098-1.4917,1.3972-2.096.5857-.6021,1.2585-1.0865,2.0179-1.4486.7583-.3622,1.5341-.5432,2.328-.5432.8279,0,1.6297.1732,2.4061.5183s1.4566.8194,2.0439,1.4226c.5862.6032,1.0605,1.3106,1.4226,2.1209.3622.8115.5432,1.6648.5432,2.5612Z" style="fill:#121b26;"/><path d="M355.6609,877.5669c2.7937-4.621,5.9502-8.1136,9.4688-10.4767,3.5181-2.3631,7.1402-3.5447,10.8654-3.5447,2.2075,0,4.1479.4391,5.8212,1.3196,1.6727.8794,3.0348,2.165,4.0873,3.8548,1.052,1.6897,1.7672,3.7687,2.1475,6.2348.3791,2.4661.3791,5.2695,0,8.4078l-3.9323,33.3732h-9.1582l3.9323-33.3732c.4827-4.14.2241-7.2002-.7764-9.1842-1.0005-1.9828-2.8458-2.9754-5.536-2.9754-1.6558,0-3.3375.4493-5.0448,1.3457-1.7078.8975-3.3557,2.173-4.9418,3.8287-1.5867,1.6558-3.0614,3.6476-4.4235,5.9757-1.3632,2.3292-2.5272,4.9243-3.4926,7.7876l-3.0014,26.5951h-9.2097l6.3124-52.4659h4.5531c2.07,0,3.1044,1.0344,3.1044,3.1044l-.7758,10.1926Z" style="fill:#121b26;"/><path d="M448.0715,866.2358l-.3622,3.0535c-.1726,1.2415-.8624,2.0688-2.0694,2.4831l-6.571,1.1385c.6547,1.7938.9829,3.7767.9829,5.9496,0,1.7259-.1992,3.2776-.5953,4.6572-.3967,1.3796-.8884,2.6562-1.4747,3.8287-.5868,1.1736-1.2246,2.2771-1.9144,3.3115-.6904,1.0344-1.3281,2.0621-1.9144,3.0784-.5868,1.0186-1.0786,2.07-1.4747,3.1565-.3967,1.0865-.5947,2.2692-.5947,3.5447,0,.9314.163,1.8199.4912,2.6642.3276.8454.7413,1.6739,1.2421,2.4842.4997.8103,1.0514,1.6297,1.6558,2.457.6032.8284,1.155,1.7078,1.6558,2.6393.4997.9314.9133,1.9398,1.2415,3.0263.3276,1.0876.4917,2.2861.4917,3.5967-.0351,2.4491-.6208,4.7681-1.7593,6.9592-1.1385,2.1899-2.7604,4.1309-4.8637,5.8206-2.1045,1.6897-4.6566,3.0274-7.658,4.0098-3.0008.9835-6.382,1.4747-10.1411,1.4747-3.0008,0-5.7352-.3101-8.2013-.9314-2.4667-.6202-4.5712-1.4996-6.3124-2.6381-1.7423-1.1385-3.0869-2.5091-4.0358-4.1139-.9484-1.6037-1.4226-3.3715-1.4226-5.3034,0-2.2081.4657-4.1569,1.3966-5.8466.9314-1.6897,2.1905-3.1474,3.7772-4.372,1.5862-1.2246,3.432-2.233,5.5365-3.0274,2.1034-.7922,4.3375-1.3785,6.7006-1.7587,2.362-.3791,4.7862-.5602,7.2698-.5432,2.4836.0181,4.9152.1992,7.2953.5432-.3107-.6553-.5608-1.3366-.7504-2.0439-.1896-.7062-.2846-1.4747-.2846-2.302,0-1.0695.1635-2.1741.4917-3.3115.3276-1.1385.8709-2.4321,1.6297-3.8808-1.3111.8975-2.7768,1.5958-4.398,2.0949-1.6218.5014-3.4666.7504-5.536.7504-2.0009,0-3.8729-.3271-5.6141-.9824-1.7423-.6553-3.2685-1.6218-4.5791-2.8984-1.3117-1.2755-2.3461-2.8713-3.105-4.7862-.7588-1.9138-1.138-4.1468-1.138-6.7,0-2.4831.4567-4.9231,1.3711-7.3213.9133-2.3971,2.2505-4.5361,4.0098-6.4159,1.7593-1.8798,3.9323-3.3896,6.5195-4.527,2.5872-1.1385,5.5705-1.7078,8.9516-1.7078,1.8623,0,3.6386.2241,5.3294.6723,1.6891.4493,3.208,1.1216,4.5531,2.0179h14.1769ZM430.4795,918.0294c0-.9314-.0866-1.7848-.2586-2.5612-.1732-.7764-.3972-1.5086-.6728-2.199-4.5531-.7243-8.4853-.9914-11.7968-.8024-3.3115.1901-6.0458.6983-8.2013,1.5267-2.156.8273-3.7512,1.898-4.7862,3.2074-1.0344,1.3106-1.5522,2.7253-1.5522,4.2429,0,2.4842,1.0429,4.381,3.1304,5.6916,2.087,1.3106,5.0448,1.967,8.8735,1.967,2.2771,0,4.3544-.3033,6.2354-.9054,1.8793-.6044,3.4835-1.4068,4.8117-2.4061,1.3275-1.0016,2.3625-2.173,3.1044-3.5186.7413-1.3457,1.1125-2.7604,1.1125-4.2429ZM420.0793,893.09c1.8629,0,3.5096-.4052,4.9418-1.2166,1.4305-.8092,2.6387-1.8787,3.6216-3.2074.9829-1.3275,1.7333-2.8203,2.2511-4.4761.5172-1.6558.7758-3.3285.7758-5.0182,0-3.0354-.7679-5.3294-2.3026-6.8822-1.5352-1.5516-3.6476-2.328-6.3384-2.328-1.8623,0-3.5011.3803-4.9152,1.1385-1.4147.7583-2.6132,1.7769-3.5962,3.0523-.9829,1.2766-1.7254,2.7253-2.225,4.3459-.5002,1.6218-.7498,3.3115-.7498,5.0714,0,3.1044.7498,5.4675,2.2505,7.0882,1.5007,1.6218,3.5962,2.4321,6.2863,2.4321Z" style="fill:#121b26;"/><path d="M480.9264,916.7358l6.3124-52.4659h4.5531c2.1039,0,3.1565,1.0344,3.1565,3.1044l-.7243,9.3132c2.5872-4.3109,5.4239-7.5794,8.5114-9.8044,3.0869-2.225,6.3209-3.3375,9.7014-3.3375,3.5526,0,6.1743,1.2155,7.8651,3.6476,1.6897,2.4321,2.5351,5.9078,2.5351,10.4257,2.5872-4.7941,5.5105-8.3388,8.77-10.6328,3.26-2.2941,6.7006-3.4405,10.3227-3.4405,4.4834,0,7.6575,1.7248,9.5203,5.1744,1.8629,3.4496,2.414,8.3297,1.6558,14.6426l-3.9323,33.3732h-9.1067l3.9843-33.3732c.4827-4.1049.3531-7.1572-.3882-9.1582-.7419-2.0009-2.4061-3.0014-4.9933-3.0014-1.4832,0-2.9578.3712-4.4235,1.1125-1.4668.7424-2.8894,1.8289-4.269,3.2595-1.3802,1.4317-2.6647,3.2085-3.8548,5.3294-1.19,2.122-2.2505,4.5621-3.1819,7.3213v.0521l-3.363,28.458h-9.1067l3.9323-33.3732c.5172-4.1049.4476-7.1572-.2071-9.1582-.6553-2.0009-2.2765-3.0014-4.8637-3.0014-1.6558,0-3.2515.4142-4.7862,1.2415-1.5352.8284-2.9839,2.027-4.3459,3.5967-1.3632,1.5697-2.6308,3.4847-3.8033,5.7425-1.1731,2.2601-2.2426,4.8043-3.208,7.6326l-3.2595,27.3194h-9.0031Z" style="fill:#121b26;"/><path d="M581.3555,864.322l-6.3129,52.4138h-9.0546l6.3124-52.4138h9.0552ZM584.8736,847.8674c0,.8975-.1811,1.7338-.5432,2.5102-.3622.7753-.8454,1.4656-1.4486,2.0688-.6038.6044-1.2936,1.0786-2.0694,1.4237-.7764.3452-1.5782.5172-2.4061.5172-.7939,0-1.5703-.172-2.3286-.5172-.7588-.3452-1.4226-.8194-1.9919-1.4237-.5693-.6032-1.0271-1.2936-1.3711-2.0688-.3452-.7764-.5178-1.6128-.5178-2.5102,0-.8964.1726-1.7406.5178-2.5351.3441-.7934.8098-1.4917,1.3972-2.096.5857-.6021,1.2585-1.0865,2.0179-1.4486.7583-.3622,1.5341-.5432,2.328-.5432.8279,0,1.6297.1732,2.4061.5183.7764.3452,1.4566.8194,2.0439,1.4226.5862.6032,1.0605,1.3106,1.4226,2.1209.3622.8115.5432,1.6648.5432,2.5612Z" style="fill:#121b26;"/><path d="M605.57,877.5669c2.7937-4.621,5.9502-8.1136,9.4688-10.4767,3.5181-2.3631,7.1402-3.5447,10.8654-3.5447,2.2075,0,4.1479.4391,5.8212,1.3196,1.6727.8794,3.0348,2.165,4.0873,3.8548,1.052,1.6897,1.7672,3.7687,2.1475,6.2348.3791,2.4661.3791,5.2695,0,8.4078l-3.9323,33.3732h-9.1582l3.9323-33.3732c.4827-4.14.2241-7.2002-.7764-9.1842-1.0005-1.9828-2.8458-2.9754-5.536-2.9754-1.6558,0-3.3375.4493-5.0448,1.3457-1.7078.8975-3.3557,2.173-4.9418,3.8287-1.5867,1.6558-3.0614,3.6476-4.4235,5.9757-1.3632,2.3292-2.5272,4.9243-3.4926,7.7876l-3.0014,26.5951h-9.2097l6.3124-52.4659h4.5531c2.07,0,3.1044,1.0344,3.1044,3.1044l-.7758,10.1926Z" style="fill:#121b26;"/><path d="M700.6708,840.52l-9.3653,76.2158h-4.8117c-1.2081,0-2.0179-.3101-2.4321-.9314-.4137-.6213-.6208-1.3796-.6208-2.2771l.9829-11.0199c-1.3111,2.276-2.7422,4.329-4.2944,6.1567-1.5522,1.8289-3.1819,3.3975-4.8897,4.7081-1.7073,1.3117-3.4841,2.3201-5.3294,3.0274-1.8453.7062-3.7172,1.0605-5.6141,1.0605-4.484,0-7.9681-1.6297-10.4518-4.8892-2.4836-3.2606-3.7252-7.9947-3.7252-14.2035,0-2.8283.2926-5.6565.8794-8.4859.5862-2.8271,1.4232-5.5365,2.5097-8.1226,1.0865-2.5872,2.3971-4.9933,3.9323-7.2183,1.5347-2.225,3.251-4.1479,5.1484-5.7697,1.8968-1.6207,3.9408-2.8973,6.1313-3.8287s4.4931-1.3966,6.9077-1.3966c2.5872,0,4.9412.5093,7.0627,1.5267,2.1215,1.0174,3.9232,2.457,5.407,4.3199l3.5701-28.8722h9.0031ZM687.3217,875.7561c-1.3117-1.8629-2.8899-3.1644-4.7347-3.9057-1.8459-.7413-3.7172-1.1125-5.6141-1.1125-2.7253,0-5.1738.8103-7.3474,2.431-2.173,1.6218-4.0274,3.7178-5.562,6.2869-1.5352,2.5702-2.7162,5.4415-3.5441,8.6149-.8279,3.1746-1.2421,6.296-1.2421,9.3653,0,4.106.7328,7.2364,2.199,9.3913,1.4656,2.156,3.5616,3.2334,6.2869,3.2334,1.6558,0,3.3285-.5172,5.0188-1.5516,1.6897-1.0356,3.3194-2.4751,4.8897-4.321,1.5692-1.8448,3.0348-4.0268,4.398-6.5449,1.3621-2.517,2.5431-5.2774,3.5441-8.2788l1.7078-13.6082Z" style="fill:#121b26;"/><path d="M741.96,872.7037c-.2767.4142-.5523.7164-.8279.9054-.2767.1901-.6213.2841-1.035.2841-.4838,0-1.009-.189-1.5782-.5681-.5693-.3791-1.2596-.8024-2.0694-1.2687-.8109-.4652-1.8029-.8964-2.9754-1.2936-1.1731-.3961-2.5872-.5942-4.2429-.5942-1.5522,0-2.9669.215-4.2429.6462-1.2761.4323-2.3716,1.0265-3.2855,1.7848-.9145.7594-1.6218,1.6478-2.1215,2.6653-.5002,1.0174-.7498,2.096-.7498,3.2334,0,1.6218.5342,2.9154,1.6037,3.8808,1.0689.9665,2.414,1.8029,4.0358,2.5102,1.6212.7073,3.363,1.3887,5.2259,2.0428,1.8629.6564,3.6041,1.4837,5.2259,2.4842,1.6212,1.0005,2.9663,2.276,4.0358,3.8287,1.0689,1.5528,1.6043,3.5707,1.6043,6.0538,0,2.4152-.4748,4.7262-1.4232,6.9331-.949,2.2081-2.311,4.149-4.0873,5.8217-1.7769,1.6727-3.9153,3.0093-6.4159,4.0098-2.5017.9993-5.3034,1.4996-8.4084,1.4996-3.346,0-6.3044-.5942-8.8735-1.7848-2.5702-1.1895-4.6657-2.7162-6.2863-4.5791l2.2765-3.5186c.3101-.447.6468-.7922,1.009-1.0344.3622-.2411.8358-.3622,1.4226-.3622.5517,0,1.1035.2422,1.6558.7243.5517.4833,1.2421,1.0265,2.07,1.6297.8279.6044,1.8708,1.1476,3.1304,1.6297,1.2585.4833,2.8537.7243,4.7856.7243,1.6897,0,3.2164-.258,4.5791-.7753,1.3626-.5183,2.5176-1.2076,3.4671-2.07.9484-.8624,1.6727-1.8708,2.173-3.0274.4997-1.1555.7504-2.388.7504-3.6997,0-1.7587-.5353-3.1553-1.6043-4.1909-1.0695-1.0344-2.4146-1.8968-4.0358-2.5872-1.6218-.6892-3.363-1.3355-5.2259-1.9398-1.8623-.6032-3.6046-1.3796-5.2259-2.328-1.6218-.9484-2.9669-2.182-4.0358-3.6997-1.0695-1.5177-1.6037-3.5356-1.6037-6.0538,0-2.2069.4397-4.338,1.3191-6.3899.8799-2.0519,2.1475-3.8717,3.8033-5.4596,1.6558-1.5856,3.6646-2.8532,6.0277-3.8027,2.3625-.9484,5.0273-1.4226,7.9942-1.4226,3.1384,0,5.9066.5263,8.3048,1.5777,2.3971,1.0525,4.4574,2.4763,6.1828,4.269l-2.328,3.3115Z" style="fill:#121b26;"/><path d="M752.9805,929.2575c-.4493-.4142-.6734-.8975-.6734-1.4486,0-.4142.2761-.9495.8284-1.6048.5512-.6553,1.1895-1.4407,1.9138-2.3541.7243-.9145,1.4317-1.9659,2.122-3.1565.6892-1.1895,1.1555-2.5272,1.3966-4.0098-.1381.0351-.3622.0521-.6723.0521-1.7938,0-3.2515-.5953-4.372-1.7848-1.1216-1.1906-1.6818-2.7162-1.6818-4.5791,0-1.6218.5602-3.0014,1.6818-4.14,1.1204-1.1385,2.6121-1.7067,4.475-1.7067,1.0356,0,1.9489.189,2.7422.5681.7934.3803,1.4577.9065,1.993,1.5788.5342.6723.9394,1.4486,1.2155,2.328.275.8794.4142,1.8368.4142,2.8724,0,1.5516-.2162,3.1644-.6474,4.8371s-1.0695,3.3285-1.9138,4.9673c-.8466,1.6376-1.8719,3.2334-3.0795,4.7862-1.2076,1.5528-2.5872,2.9833-4.1388,4.295l-1.6037-1.5007Z" style="fill:#121b26;"/><path d="M847.1482,881.2406h21.2657l-3.5186,28.3029c-1.8629,1.3457-3.7857,2.5182-5.7686,3.5186-1.984,1.0005-4.0709,1.8368-6.2609,2.5091-2.1911.6734-4.5112,1.1725-6.9592,1.5007-2.4502.3271-5.0884.4912-7.9166.4912-4.4851,0-8.5549-.8013-12.2116-2.405-3.6567-1.6048-6.7781-3.8468-9.3653-6.7272-2.5872-2.8792-4.5791-6.3197-5.9757-10.3227-1.3966-4.0008-2.096-8.3818-2.096-13.1419,0-6.3808.9914-12.2196,2.9754-17.5139,1.9828-5.2955,4.7262-9.8485,8.2267-13.6603,3.5005-3.8106,7.6586-6.769,12.4697-8.8741,4.8122-2.1028,10.0647-3.1553,15.7563-3.1553,2.8973,0,5.5105.2411,7.8385.7243,2.328.4833,4.4501,1.1555,6.3639,2.0179,1.9149.8624,3.6386,1.8798,5.1744,3.0523,1.5347,1.1725,2.9403,2.4491,4.2169,3.8287l-3.1044,4.0358c-.5172.7243-1.1306,1.1736-1.8368,1.3457-.7073.1732-1.4407.017-2.199-.4663-.7594-.447-1.5958-1.0254-2.5091-1.7327-.9145-.7073-2.027-1.3796-3.3375-2.0179-1.3117-.6383-2.8803-1.1906-4.7092-1.6558-1.8278-.4663-4.0358-.6983-6.623-.6983-4.2418,0-8.1317.8103-11.6673,2.431-3.5356,1.6218-6.571,3.9328-9.1061,6.9343-2.5363,3.0003-4.5021,6.6219-5.8987,10.8648-1.3977,4.2429-2.096,8.9692-2.096,14.1775,0,3.8989.5093,7.3994,1.5267,10.5038,1.0174,3.1044,2.4582,5.7437,4.3199,7.9166,1.8629,2.173,4.1049,3.8378,6.7272,4.9933,2.6211,1.1555,5.5365,1.7327,8.7439,1.7327,1.7927,0,3.4666-.103,5.0193-.3101,1.5516-.2071,3.0173-.4923,4.398-.8545,1.3785-.3622,2.6902-.8092,3.9317-1.3445,1.2427-.5342,2.4842-1.1465,3.7257-1.8368l2.07-16.7647h-10.3488c-.6202,0-1.1046-.1811-1.4486-.5432-.3452-.3622-.4833-.8024-.4142-1.3196l.6213-5.5365Z" style="fill:#121b26;"/><path d="M892.0608,878.9125c1.3785-2.9312,2.8713-5.4754,4.475-7.6314,1.6048-2.156,3.2855-3.8457,5.0454-5.0714,1.7587-1.2234,3.5696-1.9659,5.4324-2.225,1.8629-.258,3.7597.026,5.6916.8545l-1.6558,8.8481c-4.484-1.7938-8.4429-1.1385-11.8744,1.9659-3.4326,3.1044-6.2179,8.71-8.3557,16.8156l-2.8984,24.2671h-9.0031l6.3129-52.4659h4.5531c2.1039,0,3.1565,1.0344,3.1565,3.1044l-.8794,11.5382Z" style="fill:#121b26;"/><path d="M935.0063,917.4601c-2.8633,0-5.4845-.4912-7.8646-1.4747-2.3801-.9835-4.4331-2.4061-6.1579-4.269-1.7248-1.8629-3.0705-4.1388-4.0358-6.829-.9654-2.6913-1.4486-5.7606-1.4486-9.2102,0-4.415.6904-8.5719,2.07-12.4697,1.3796-3.8978,3.2764-7.3043,5.6916-10.2197,2.414-2.9143,5.2513-5.2163,8.5119-6.9071,3.2595-1.6897,6.769-2.5351,10.5287-2.5351,2.8633,0,5.4845.4912,7.8646,1.4747,2.3812.9824,4.4331,2.4061,6.1579,4.269,1.7248,1.8617,3.0693,4.1388,4.0358,6.829.9654,2.6913,1.4486,5.7437,1.4486,9.1582,0,4.381-.6904,8.521-2.07,12.4187-1.3796,3.8978-3.2685,7.3134-5.6656,10.2446-2.3982,2.9324-5.2344,5.2513-8.5108,6.9592-3.2776,1.7078-6.7962,2.5612-10.5559,2.5612ZM935.8857,910.2678c2.5182,0,4.8032-.6892,6.8562-2.0688,2.0519-1.3796,3.8106-3.2164,5.2774-5.5105,1.4656-2.2941,2.5951-4.9424,3.3896-7.9427.7922-3.0014,1.1895-6.1398,1.1895-9.4173,0-4.8292-.9575-8.4599-2.8713-10.892-1.9149-2.431-4.6662-3.6476-8.2528-3.6476-2.5532,0-4.8564.6824-6.9082,2.0439-2.0519,1.3638-3.8027,3.1825-5.2513,5.4585-1.4486,2.2771-2.5702,4.9163-3.3636,7.9166-.7934,3.0014-1.1895,6.1409-1.1895,9.4173,0,4.8303.9484,8.478,2.8452,10.9429,1.8968,2.4672,4.6572,3.6997,8.2788,3.6997Z" style="fill:#121b26;"/><path d="M1044.2343,864.322l-21.9911,52.4138h-6.9852c-.8273,0-1.3445-.5862-1.5516-1.7587l-6.3639-35.5473c-.0702-.5862-.1302-1.1465-.1811-1.6818-.0521-.5342-.1132-1.0944-.1811-1.6807-.3803,1.1374-.7945,2.276-1.2427,3.4145l-15.1078,35.4952c-.4844,1.1725-1.1906,1.7587-2.122,1.7587h-6.726l-9.2102-52.4138h6.8822c.6892,0,1.2415.172,1.6546.5172.4142.3452.6904.8103.8284,1.3966l4.8122,33.7354c.0679,1.2087.1369,2.3801.2071,3.5186.0679,1.1385.12,2.2601.1551,3.3636.3791-1.1035.7934-2.225,1.2415-3.3636.4482-1.1385.9133-2.3099,1.3966-3.5186l14.3325-33.9425c.172-.5172.5002-.9484.9835-1.2936.4821-.3441,1.0174-.5172,1.6037-.5172h3.8287c.6553,0,1.1725.1732,1.5528.5172.3791.3452.6032.7764.6723,1.2936l5.8987,33.9425c.172,1.2087.3271,2.3722.4663,3.4926.1369,1.1216.258,2.2511.3622,3.3896.3101-1.1035.6462-2.225,1.0084-3.3636s.7504-2.3099,1.1646-3.5186l13.297-33.7354c.172-.5512.5093-1.0084,1.0095-1.3706.4991-.3622,1.0423-.5432,1.6297-.5432h6.6751Z" style="fill:#121b26;"/><path d="M1065.3958,864.322l-6.3129,52.4138h-9.054l6.3118-52.4138h9.0552ZM1068.9145,847.8674c0,.8975-.1811,1.7338-.5432,2.5102-.3622.7753-.8466,1.4656-1.4498,2.0688-.6032.6044-1.2925,1.0786-2.0688,1.4237-.7764.3452-1.5788.5172-2.4061.5172-.7945,0-1.5697-.172-2.328-.5172-.7594-.3452-1.4237-.8194-1.993-1.4237-.5681-.6032-1.0265-1.2936-1.3706-2.0688-.3452-.7764-.5172-1.6128-.5172-2.5102,0-.8964.172-1.7406.5172-2.5351.3441-.7934.8103-1.4917,1.3966-2.096.5862-.6021,1.2596-1.0865,2.0179-1.4486s1.5347-.5432,2.3292-.5432c.8273,0,1.6297.1732,2.405.5183.7764.3452,1.4577.8194,2.0439,1.4226.5862.6032,1.0616,1.3106,1.4237,2.1209.3622.8115.5432,1.6648.5432,2.5612Z" style="fill:#121b26;"/><path d="M1089.6097,877.5669c2.7943-4.621,5.9508-8.1136,9.4694-10.4767,3.5186-2.3631,7.1402-3.5447,10.866-3.5447,2.2069,0,4.1468.4391,5.8206,1.3196,1.6727.8794,3.0354,2.165,4.0879,3.8548,1.0514,1.6897,1.7667,3.7687,2.1469,6.2348.3791,2.4661.3791,5.2695,0,8.4078l-3.9328,33.3732h-9.1582l3.9328-33.3732c.4821-4.14.2241-7.2002-.7764-9.1842-1.0005-1.9828-2.8452-2.9754-5.5365-2.9754-1.6558,0-3.3375.4493-5.0442,1.3457-1.7078.8975-3.3557,2.173-4.9412,3.8287-1.5879,1.6558-3.0625,3.6476-4.424,5.9757-1.3638,2.3292-2.5272,4.9243-3.4926,7.7876l-3.0014,26.5951h-9.2102l6.3129-52.4659h4.5531c2.07,0,3.1044,1.0344,3.1044,3.1044l-.7764,10.1926Z" style="fill:#121b26;"/><path d="M1182.0209,866.2358l-.3622,3.0535c-.1732,1.2415-.8635,2.0688-2.07,2.4831l-6.571,1.1385c.6542,1.7938.9824,3.7767.9824,5.9496,0,1.7259-.1981,3.2776-.5942,4.6572-.3972,1.3796-.8884,2.6562-1.4747,3.8287-.5874,1.1736-1.2257,2.2771-1.9149,3.3115-.6904,1.0344-1.3287,2.0621-1.9138,3.0784-.5874,1.0186-1.0786,2.07-1.4747,3.1565-.3972,1.0865-.5953,2.2692-.5953,3.5447,0,.9314.163,1.8199.4912,2.6642.3271.8454.7413,1.6739,1.2415,2.4842s1.0525,1.6297,1.6558,2.457c.6032.8284,1.1555,1.7078,1.6558,2.6393.5002.9314.9145,1.9398,1.2427,3.0263.3271,1.0876.4912,2.2861.4912,3.5967-.0351,2.4491-.6213,4.7681-1.7599,6.9592-1.1374,2.1899-2.7592,4.1309-4.8632,5.8206s-4.6572,3.0274-7.6575,4.0098c-3.0014.9835-6.382,1.4747-10.1417,1.4747-3.0014,0-5.7357-.3101-8.2007-.9314-2.4672-.6202-4.5712-1.4996-6.3129-2.6381-1.7418-1.1385-3.0863-2.5091-4.0358-4.1139-.9484-1.6037-1.4226-3.3715-1.4226-5.3034,0-2.2081.4652-4.1569,1.3966-5.8466.9314-1.6897,2.1899-3.1474,3.7778-4.372,1.5856-1.2246,3.4315-2.233,5.5354-3.0274,2.1039-.7922,4.338-1.3785,6.7011-1.7587,2.362-.3791,4.7862-.5602,7.2693-.5432,2.4842.0181,4.9163.1992,7.2964.5432-.3112-.6553-.5614-1.3366-.7504-2.0439-.1901-.7062-.2852-1.4747-.2852-2.302,0-1.0695.163-2.1741.4923-3.3115.3271-1.1385.8703-2.4321,1.6297-3.8808-1.3117.8975-2.7773,1.5958-4.398,2.0949-1.6218.5014-3.4677.7504-5.5365.7504-2.0009,0-3.8729-.3271-5.6146-.9824-1.7418-.6553-3.2685-1.6218-4.5791-2.8984-1.3106-1.2755-2.3461-2.8713-3.1044-4.7862-.7594-1.9138-1.1385-4.1468-1.1385-6.7,0-2.4831.4572-4.9231,1.3717-7.3213.9133-2.3971,2.2511-4.5361,4.0098-6.4159,1.7599-1.8798,3.9328-3.3896,6.52-4.527,2.5861-1.1385,5.5694-1.7078,8.9511-1.7078,1.8629,0,3.6386.2241,5.3294.6723,1.6897.4493,3.2074,1.1216,4.5531,2.0179h14.1775ZM1164.4289,918.0294c0-.9314-.0871-1.7848-.2592-2.5612-.1732-.7764-.3972-1.5086-.6723-2.199-4.5542-.7243-8.4859-.9914-11.7974-.8024-3.3115.1901-6.0458.6983-8.2007,1.5267-2.1571.8273-3.7518,1.898-4.7862,3.2074-1.0356,1.3106-1.5528,2.7253-1.5528,4.2429,0,2.4842,1.0435,4.381,3.1304,5.6916,2.087,1.3106,5.0454,1.967,8.8741,1.967,2.276,0,4.3539-.3033,6.2348-.9054,1.8798-.6044,3.4835-1.4068,4.8122-2.4061,1.3264-1.0016,2.362-2.173,3.1044-3.5186.7413-1.3457,1.1125-2.7604,1.1125-4.2429ZM1154.0281,893.09c1.8629,0,3.5096-.4052,4.9412-1.2166,1.4317-.8092,2.6393-1.8787,3.6227-3.2074.9824-1.3275,1.7327-2.8203,2.2499-4.4761.5172-1.6558.7764-3.3285.7764-5.0182,0-3.0354-.7685-5.3294-2.302-6.8822-1.5358-1.5516-3.6476-2.328-6.339-2.328-1.8629,0-3.5017.3803-4.9152,1.1385-1.4147.7583-2.6132,1.7769-3.5956,3.0523-.9835,1.2766-1.7259,2.7253-2.225,4.3459-.5014,1.6218-.7504,3.3115-.7504,5.0714,0,3.1044.7504,5.4675,2.2499,7.0882,1.5007,1.6218,3.5967,2.4321,6.2869,2.4321Z" style="fill:#121b26;"/><path d="M1229.0001,875.9111c2.7253-4.0698,5.7516-7.1482,9.0812-9.2351,3.3285-2.087,6.717-3.1304,10.1677-3.1304,2.2409,0,4.2079.4391,5.8976,1.3196,1.6897.8794,3.0614,2.165,4.1139,3.8548,1.0514,1.6897,1.7678,3.7687,2.1469,6.2348.3791,2.4661.3791,5.2695,0,8.4078l-3.9317,33.3732h-9.2102l3.9317-33.3732c.5183-4.14.2761-7.2093-.7243-9.2102-1.0005-1.9998-2.8633-3.0014-5.5875-3.0014-1.5528,0-3.1565.4233-4.8122,1.2676-1.6558.8466-3.2515,2.0439-4.7862,3.5967-1.5347,1.5516-2.9844,3.4326-4.3459,5.6395-1.3638,2.2081-2.5442,4.6741-3.5447,7.3994l-3.3636,27.6816h-9.1582l9.2102-76.2158h9.2102l-4.295,35.3911Z" style="fill:#121b26;"/><path d="M1314.0119,907.0604c-1.7599,1.8289-3.4847,3.3885-5.1744,4.6821-1.6908,1.2936-3.4066,2.3722-5.1484,3.2346-1.7429.8624-3.5707,1.4917-5.4845,1.8878-1.9149.3961-3.9759.5953-6.1839.5953-3.0003,0-5.6905-.5002-8.0717-1.5007-2.3801-.9993-4.398-2.4231-6.0538-4.269-1.6558-1.8448-2.9312-4.0777-3.8287-6.7-.8975-2.6211-1.3445-5.5535-1.3445-8.796,0-2.6902.2841-5.3724.8533-8.0456.5693-2.6732,1.3966-5.2174,2.4831-7.6326,1.0876-2.414,2.414-4.656,3.9849-6.726,1.5686-2.07,3.3624-3.8548,5.3804-5.3555s4.2429-2.6811,6.6751-3.5447c2.4321-.8613,5.0454-1.2925,7.8385-1.2925,2.6562,0,4.9503.3791,6.8822,1.1374,1.9308.7594,3.5186,1.7259,4.7602,2.8984,1.2415,1.1725,2.1639,2.4661,2.7683,3.8797.6032,1.4158.9054,2.7604.9054,4.0358,0,2.2771-.4663,4.3731-1.3966,6.2869-.9314,1.9149-2.6393,3.6397-5.1235,5.1744-2.4831,1.5358-5.8976,2.8713-10.2446,4.0098-4.3459,1.1385-9.9345,2.053-16.7636,2.7422,0,.3803-.0091.7504-.026,1.1125-.0181.3622-.026.7334-.026,1.1125,0,4.6232,1.0084,8.1498,3.0263,10.5808,2.0179,2.4321,5.0623,3.6488,9.1333,3.6488,1.6558,0,3.1304-.1732,4.424-.5183,1.2925-.3441,2.448-.7673,3.4666-1.2676,1.0163-.4991,1.9138-1.0514,2.6902-1.6558.7764-.6032,1.4826-1.1555,2.1209-1.6558.6383-.4991,1.2336-.9224,1.7859-1.2676.5512-.3441,1.1035-.5172,1.6558-.5172.6542,0,1.2415.2931,1.7587.8794l2.2771,2.8464ZM1299.4202,870.2195c-2.173,0-4.1739.4493-6.0017,1.3457-1.8289.8975-3.4496,2.13-4.8643,3.6997-1.4147,1.5697-2.6211,3.4145-3.6216,5.5365-1.0005,2.1209-1.7769,4.4071-2.328,6.855,5.3113-.6542,9.5724-1.4045,12.7798-2.2499,3.2085-.8454,5.6735-1.7599,7.3994-2.7422,1.7248-.9835,2.8622-2.0439,3.4145-3.1825.5512-1.1385.8284-2.328.8284-3.5707,0-.6202-.1381-1.2676-.4142-1.9398s-.7164-1.2845-1.3196-1.8368c-.6032-.5512-1.3887-1.0084-2.3541-1.3717-.9665-.3622-2.139-.5432-3.5186-.5432Z" style="fill:#121b26;"/><path d="M1357.7836,902.9205c-1.2415,2.2081-2.5793,4.209-4.0098,6.0028-1.4317,1.7938-2.9494,3.3194-4.5531,4.5791-1.6048,1.2596-3.2945,2.233-5.0714,2.9233-1.7769.6892-3.6137,1.0344-5.5105,1.0344-2.07,0-3.9498-.4063-5.6395-1.2155-1.6908-.8103-3.1304-2.0009-4.321-3.5707-1.1895-1.5686-2.113-3.5005-2.7671-5.7946-.6564-2.2941-.9835-4.9243-.9835-7.8906,0-3.1044.3882-6.1318,1.1646-9.0812.7753-2.9494,1.8787-5.7346,3.3115-8.3557,1.4305-2.6211,3.1463-5.0273,5.1472-7.2183,2.0009-2.1899,4.2339-4.0879,6.7011-5.6916,2.4661-1.6037,5.1133-2.8452,7.9427-3.7257,2.8271-.8794,5.7946-1.3185,8.899-1.3185,2.242,0,4.424.1811,6.5461.5432,2.1209.3622,4.2169.9914,6.2858,1.8878l-6.2609,50.7072h-4.7602c-1.2076,0-2.027-.3101-2.457-.9314-.4323-.6213-.6474-1.3796-.6474-2.2771l.9835-10.6068ZM1361.3023,870.7379c-.7594-.1732-1.5098-.2852-2.2511-.3373-.7424-.0509-1.4747-.077-2.199-.077-2.07,0-4.0709.3361-6.0017,1.0084-1.933.6734-3.7438,1.6139-5.4336,2.8203-1.6897,1.2076-3.2255,2.6483-4.6051,4.3199-1.3796,1.6739-2.5612,3.5107-3.5435,5.5105-.9835,2.0009-1.752,4.132-2.3031,6.391-.5523,2.259-.8273,4.5791-.8273,6.9592,0,8.3127,2.6551,12.4697,7.9676,12.4697,1.6897,0,3.3455-.5263,4.9673-1.5788,1.6207-1.0514,3.1644-2.517,4.6311-4.398,1.4656-1.8798,2.8203-4.1037,4.0619-6.674,1.2415-2.5691,2.345-5.3894,3.3115-8.4599l2.225-17.9542Z" style="fill:#121b26;"/><path d="M1394.5193,878.9125c1.3785-2.9312,2.8713-5.4754,4.475-7.6314,1.6048-2.156,3.2855-3.8457,5.0454-5.0714,1.7587-1.2234,3.5696-1.9659,5.4324-2.225,1.8629-.258,3.7597.026,5.6916.8545l-1.6558,8.8481c-4.484-1.7938-8.4429-1.1385-11.8744,1.9659-3.4326,3.1044-6.2179,8.71-8.3557,16.8156l-2.8984,24.2671h-9.0031l6.3129-52.4659h4.5531c2.1039,0,3.1565,1.0344,3.1565,3.1044l-.8794,11.5382Z" style="fill:#121b26;"/><path d="M1424.0117,906.8533v-.8024c0-.3271.026-.8013.077-1.4226.0521-.6213.1381-1.4305.2592-2.4321.12-.9993.2841-2.3099.4912-3.9317l3.2085-26.233h-5.8466c-.4833,0-.8715-.1641-1.1646-.4923-.2931-.3271-.4063-.8352-.3361-1.5256l.4142-3.6737,8.0717-1.0865,3.9317-16.1954c.172-.5172.4403-.9394.8024-1.2676.3622-.3282.8183-.4923,1.3706-.4923h4.8122l-2.225,18.0583h13.7633l-.7764,6.6751h-13.8142l-3.1565,25.7667c-.1732,1.4147-.3101,2.5532-.4142,3.4156-.103.8624-.1811,1.5516-.2331,2.0688-.0509.5172-.086.8805-.103,1.0865-.0181.2071-.026.3622-.026.4663,0,1.7587.4142,3.0614,1.2415,3.9068.8284.8454,1.9319,1.2676,3.3115,1.2676.9314,0,1.7338-.1302,2.4061-.3882.6734-.2592,1.2676-.5432,1.7859-.8545.5172-.3101.9473-.5942,1.2925-.8533s.6383-.3882.8805-.3882c.3101,0,.5432.0702.6983.2071.1551.1381.301.3622.4403.6723l1.9659,4.398c-1.6908,1.4837-3.6137,2.6483-5.7697,3.4926-2.156.8454-4.3199,1.2676-6.4929,1.2676-3.3466,0-5.9768-.9133-7.8906-2.7422-1.9149-1.8278-2.9063-4.4829-2.9754-7.9676Z" style="fill:#121b26;"/><path d="M1493.4471,872.7037c-.2761.4142-.5523.7164-.8273.9054-.2773.1901-.6213.2841-1.0356.2841-.4833,0-1.0084-.189-1.5777-.5681-.5693-.3791-1.2596-.8024-2.07-1.2687-.8103-.4652-1.8029-.8964-2.9743-1.2936-1.1736-.3961-2.5872-.5942-4.2429-.5942-1.5528,0-2.9675.215-4.2429.6462-1.2766.4323-2.3722,1.0265-3.2855,1.7848-.9145.7594-1.6218,1.6478-2.122,2.6653-.5002,1.0174-.7504,2.096-.7504,3.2334,0,1.6218.5342,2.9154,1.6048,3.8808,1.0684.9665,2.414,1.8029,4.0358,2.5102,1.6207.7073,3.3624,1.3887,5.2253,2.0428,1.8629.6564,3.6046,1.4837,5.2264,2.4842,1.6207,1.0005,2.9663,2.276,4.0358,3.8287,1.0684,1.5528,1.6037,3.5707,1.6037,6.0538,0,2.4152-.4742,4.7262-1.4226,6.9331-.9495,2.2081-2.3122,4.149-4.0879,5.8217-1.7769,1.6727-3.9159,3.0093-6.4159,4.0098-2.5012.9993-5.3034,1.4996-8.4078,1.4996-3.3466,0-6.305-.5942-8.8741-1.7848-2.5702-1.1895-4.6651-2.7162-6.2869-4.5791l2.2771-3.5186c.3101-.447.6462-.7922,1.0084-1.0344.3622-.2411.8364-.3622,1.4237-.3622.5512,0,1.1035.2422,1.6558.7243.5512.4833,1.2415,1.0265,2.0688,1.6297.8284.6044,1.8708,1.1476,3.1304,1.6297,1.2596.4833,2.8543.7243,4.7862.7243,1.6897,0,3.2164-.258,4.5791-.7753,1.3626-.5183,2.5182-1.2076,3.4666-2.07s1.6727-1.8708,2.1741-3.0274c.4991-1.1555.7492-2.388.7492-3.6997,0-1.7587-.5342-3.1553-1.6037-4.1909-1.0695-1.0344-2.4152-1.8968-4.0358-2.5872-1.6218-.6892-3.3636-1.3355-5.2253-1.9398-1.8629-.6032-3.6058-1.3796-5.2264-2.328-1.6218-.9484-2.9675-2.182-4.0358-3.6997-1.0695-1.5177-1.6037-3.5356-1.6037-6.0538,0-2.2069.4391-4.338,1.3196-6.3899.8794-2.0519,2.1469-3.8717,3.8027-5.4596,1.6558-1.5856,3.6646-2.8532,6.0277-3.8027,2.362-.9484,5.0273-1.4226,7.9947-1.4226,3.1384,0,5.9066.5263,8.3037,1.5777,2.3971,1.0525,4.458,2.4763,6.1839,4.269l-2.3292,3.3115Z" style="fill:#121b26;"/></g></g></svg>