<?xml version="1.0" encoding="UTF-8"?>
<!-- Generator: visioncortex VTracer -->
<svg id="svg" version="1.1" xmlns="http://www.w3.org/2000/svg" style="display: block;" viewBox="0 0 1050 197"><path d="M0 0 C9.15370023 5.91090957 13.56789975 14.75327452 17.5625 24.5625 C18.18511719 26.07457031 18.18511719 26.07457031 18.8203125 27.6171875 C19.75518975 29.9249614 20.67044484 32.23790921 21.5625 34.5625 C22.63978142 31.33065574 22.29019855 29.3791322 21.83203125 26.07421875 C20.98961995 18.22392211 20.35133 10.48085072 24.5625 3.5625 C27.03700389 0.82287069 28.2881847 0.59242531 32 0.1875 C36.87619062 0.70078322 39.20284714 2.20284714 42.625 5.625 C53.89139419 22.70630731 53.23602185 47.31324549 49.5625 66.5625 C47.64099429 74.25817864 44.6327373 80.32643908 38.5625 85.5625 C33.33342441 88.66121146 28.51202978 89.34849293 22.5625 88.5625 C12.02991325 84.77076877 6.66345262 75.97708428 1.5625 66.5625 C0.50436134 64.24825206 -0.47259236 61.91818502 -1.4375 59.5625 C-1.42178955 60.16723145 -1.4060791 60.77196289 -1.38989258 61.39501953 C-1.3271812 64.15908296 -1.28839589 66.92299621 -1.25 69.6875 C-1.22486328 70.63882813 -1.19972656 71.59015625 -1.17382812 72.5703125 C-1.11746593 77.9810834 -1.27099204 81.94190796 -4.4375 86.5625 C-8.46910754 89.25023836 -11.70199617 89.34757471 -16.4375 88.5625 C-23.26611605 83.85834228 -25.54966346 75.41248265 -27.02954102 67.6159668 C-27.8740959 61.29469331 -27.82943343 54.92884345 -27.8125 48.5625 C-27.81228851 47.83183319 -27.81207703 47.10116638 -27.81185913 46.34835815 C-27.76957708 31.72177536 -27.12212407 16.02532911 -18.4375 3.5625 C-12.95439655 -1.79005336 -7.17168604 -2.99906871 0 0 Z " transform="translate(940.4375,51.4375)" style="fill: #F48050;"/><path d="M0 0 C9.15370023 5.91090957 13.56789975 14.75327452 17.5625 24.5625 C18.18511719 26.07457031 18.18511719 26.07457031 18.8203125 27.6171875 C19.75518975 29.9249614 20.67044484 32.23790921 21.5625 34.5625 C22.63978142 31.33065574 22.29019855 29.3791322 21.83203125 26.07421875 C20.98961995 18.22392211 20.35133 10.48085072 24.5625 3.5625 C27.03700389 0.82287069 28.2881847 0.59242531 32 0.1875 C36.87619062 0.70078322 39.20284714 2.20284714 42.625 5.625 C53.89139419 22.70630731 53.23602185 47.31324549 49.5625 66.5625 C47.64099429 74.25817864 44.6327373 80.32643908 38.5625 85.5625 C33.33342441 88.66121146 28.51202978 89.34849293 22.5625 88.5625 C12.02991325 84.77076877 6.66345262 75.97708428 1.5625 66.5625 C0.50436134 64.24825206 -0.47259236 61.91818502 -1.4375 59.5625 C-1.42178955 60.16723145 -1.4060791 60.77196289 -1.38989258 61.39501953 C-1.3271812 64.15908296 -1.28839589 66.92299621 -1.25 69.6875 C-1.22486328 70.63882813 -1.19972656 71.59015625 -1.17382812 72.5703125 C-1.11746593 77.9810834 -1.27099204 81.94190796 -4.4375 86.5625 C-8.46910754 89.25023836 -11.70199617 89.34757471 -16.4375 88.5625 C-23.26611605 83.85834228 -25.54966346 75.41248265 -27.02954102 67.6159668 C-27.8740959 61.29469331 -27.82943343 54.92884345 -27.8125 48.5625 C-27.81228851 47.83183319 -27.81207703 47.10116638 -27.81185913 46.34835815 C-27.76957708 31.72177536 -27.12212407 16.02532911 -18.4375 3.5625 C-12.95439655 -1.79005336 -7.17168604 -2.99906871 0 0 Z " transform="translate(469.4375,51.4375)" style="fill: #F48050;"/><path d="M0 0 C8.52299018 6.03890259 12.88258148 14.54190032 14.796875 24.65234375 C17.14654687 40.70403475 11.88407384 57.56549126 2.39453125 70.52734375 C-3.80130752 77.97426534 -10.35203826 83.63202881 -20.15234375 85.03515625 C-30.38547312 85.51548681 -38.14623698 83.22228307 -45.94921875 76.51171875 C-55.61259318 66.48777065 -59.00268528 53.79527156 -58.91796875 40.21484375 C-58.9130542 39.28567139 -58.90813965 38.35649902 -58.90307617 37.39916992 C-58.78889808 30.71770225 -58.1739967 24.756284 -55.60546875 18.52734375 C-55.27675781 17.68300781 -54.94804688 16.83867188 -54.609375 15.96875 C-50.57446939 6.7959715 -44.02185234 -0.12850533 -34.6484375 -3.81640625 C-23.06341274 -7.53779088 -10.57450568 -5.97689451 0 0 Z M-28.60546875 46.52734375 C-28.97818421 49.43452431 -28.99825013 50.93817168 -27.35546875 53.40234375 C-25.66304942 54.71322917 -25.66304942 54.71322917 -23.54296875 54.52734375 C-21.39404766 53.62782822 -21.39404766 53.62782822 -20.16796875 51.21484375 C-19.3174692 48.51933944 -19.3174692 48.51933944 -20.73046875 46.21484375 C-23.70655602 43.53636521 -25.82934769 43.75122269 -28.60546875 46.52734375 Z " transform="translate(169.60546875,55.47265625)" style="fill: #F48050;"/><path d="M0 0 C6.3157924 5.29160985 7.77269709 12.95594623 8.83203125 20.76953125 C10.41752313 42.31108088 6.20550292 64.62109351 -8.125 81.4375 C-13.65426011 87.21433892 -18.03541608 89.04625728 -26 89.4375 C-36.53065593 89.12423106 -43.20674408 84.38051059 -50.30078125 76.86328125 C-62.14120129 62.34859286 -68.06799668 43.9163908 -68 25.3125 C-68.01611328 24.42304687 -68.03222656 23.53359375 -68.04882812 22.6171875 C-68.05390664 15.71041221 -67.2288643 9.76123811 -62.4375 4.4375 C-58.84075313 2.47563807 -56.73713527 2.36913014 -52.6875 2.9375 C-43.2762862 7.5470741 -39.50488758 16.95926627 -36 26.25 C-35.25314854 28.20713381 -34.49951836 30.16169781 -33.73828125 32.11328125 C-33.25355347 33.39585815 -33.25355347 33.39585815 -32.7590332 34.7043457 C-31.67401901 36.96559538 -30.56328373 38.29873468 -28.6875 39.9375 C-26.14466478 36.92817026 -25.10601856 34.48045142 -24.2578125 30.6484375 C-24.01933594 29.62363281 -23.78085938 28.59882812 -23.53515625 27.54296875 C-23.05875053 25.41330642 -22.5847358 23.28310762 -22.11328125 21.15234375 C-20.33925197 13.55342688 -18.31974713 5.18740533 -12.3125 -0.1875 C-7.90230691 -1.65756436 -4.33836823 -1.71516884 0 0 Z " transform="translate(257.6875,51.0625)" style="fill: #F48050;"/><path d="M0 0 C14.01746859 7.13733492 25.11356259 18.81255461 30.40625 33.734375 C33.47840456 43.41974649 33.92325052 54.77190618 29.25390625 64.015625 C22.39520742 75.11113779 12.26250836 81.69230736 0.07421875 85.87890625 C-4.09871581 86.85214658 -7.89115804 87.06583096 -12.15625 87.046875 C-12.88521484 87.06298828 -13.61417969 87.07910156 -14.36523438 87.09570312 C-19.16412851 87.10002256 -22.48037193 86.44318495 -26.59375 83.734375 C-36.58567712 73.49789022 -35.14453592 56.41192534 -34.99780273 43.11450195 C-34.72990968 27.7989699 -33.42976224 10.62360713 -22.59375 -1.265625 C-15.42403101 -5.86374887 -7.22277614 -3.00386484 0 0 Z M-4.59375 42.734375 C-5.99056568 43.90420944 -5.99056568 43.90420944 -5.71875 47.171875 C-5.8463781 50.57543084 -5.8463781 50.57543084 -4.59375 52.734375 C-2.94375 52.404375 -1.29375 52.074375 0.40625 51.734375 C1.78607969 48.75051989 1.78607969 48.75051989 0.15625 46.109375 C-1.43994064 43.46555755 -1.43994064 43.46555755 -4.59375 42.734375 Z " transform="translate(560.59375,53.265625)" style="fill: #F48050;"/><path d="M0 0 C6.89316013 4.65120999 11.16733226 9.81974798 13 18 C14.18495049 26.60648248 12.4204288 35.15915447 7.36328125 42.31640625 C6.68845703 43.14978516 6.68845703 43.14978516 6 44 C7.35420755 47.06864764 8.84502048 48.99589454 11.3125 51.25 C17.24888767 57.01288156 21.07329983 62.98174196 21.25 71.375 C21.18728374 75.61880052 20.4156874 78.41811868 18 82 C13.07537357 86.44417507 10.04371339 87.3670858 3.53515625 87.2734375 C-1.72817867 86.70574344 -4.29490702 83.8426721 -7.5625 79.9375 C-10.23650203 75.97825183 -12.04836459 71.65309573 -13.88671875 67.2578125 C-14.78954736 64.85337963 -14.78954736 64.85337963 -17 64 C-17.08636719 65.16917969 -17.17273438 66.33835937 -17.26171875 67.54296875 C-17.40247186 69.09125301 -17.54446445 70.63942493 -17.6875 72.1875 C-17.74099609 72.95642578 -17.79449219 73.72535156 -17.84960938 74.51757812 C-18.27177085 78.79425737 -18.65718173 80.59340159 -21.51953125 83.98828125 C-22.33808594 84.65214844 -23.15664063 85.31601563 -24 86 C-24.33 86.33 -24.66 86.66 -25 87 C-31.09690716 87.51668705 -34.15069031 87.0778286 -39 83 C-47.00921476 75.22635038 -48.13159197 62.90028782 -48.29248047 52.36499023 C-48.38766261 34.58334125 -47.24688316 17.97079584 -34.75 4.0625 C-25.47278335 -4.38240618 -11.06129462 -5.92997203 0 0 Z M-15 27 C-17.28728734 28.83883881 -17.28728734 28.83883881 -17.125 31.625 C-17.08375 32.40875 -17.0425 33.1925 -17 34 C-15.02 34.99 -15.02 34.99 -13 36 C-11.37249963 33.67676547 -11.37249963 33.67676547 -10 31 C-10.33 30.01 -10.66 29.02 -11 28 C-12.90708843 27.08571661 -12.90708843 27.08571661 -15 27 Z " transform="translate(887,53)" style="fill: #F48050;"/><path d="M0 0 C11.37900994 6.82740596 16.3456165 22.10882054 19.62988281 34.34716797 C23.28907184 49.05878473 28.08499269 68.46007009 22 83 C19.94117265 86.05704667 18.57832653 87.60843044 14.953125 88.5078125 C9.41661242 88.94691522 6.16464716 87.35521801 1.97265625 83.86328125 C-0.80043484 81.24394571 -3.4133137 78.4892925 -5.9453125 75.63671875 C-8.81103242 73.35394946 -10.31219354 72.820107 -14 73 C-16.74555044 74.92591946 -18.89077789 77.32602701 -21.125 79.8125 C-22.33137204 81.11492077 -23.54216988 82.41325909 -24.7578125 83.70703125 C-25.2852002 84.2894458 -25.81258789 84.87186035 -26.35595703 85.47192383 C-30.3927459 89.22396742 -34.27992456 89.42203673 -39.5859375 89.328125 C-42.98441866 88.86619552 -44.71999073 87.50065533 -47 85 C-51.317443 76.365114 -47.94872497 61.37146034 -45.25390625 52.6015625 C-38.65093078 33.6360068 -30.17739287 10.77483469 -12 0 C-7.78434444 -1.40521852 -4.29380636 -1.03465214 0 0 Z M-11 43 C-13.2500372 45.69722984 -13.2500372 45.69722984 -12.8125 48.125 C-12.4103125 49.053125 -12.4103125 49.053125 -12 50 C-11.01 50.33 -10.02 50.66 -9 51 C-7.33378575 49.8354799 -7.33378575 49.8354799 -6 48 C-6.23043864 45.34533951 -6.23043864 45.34533951 -7 43 C-8.32 43 -9.64 43 -11 43 Z " transform="translate(809,51)" style="fill: #F48050;"/><path d="M0 0 C11.37900994 6.82740596 16.3456165 22.10882054 19.62988281 34.34716797 C23.28907184 49.05878473 28.08499269 68.46007009 22 83 C19.94117265 86.05704667 18.57832653 87.60843044 14.953125 88.5078125 C9.41661242 88.94691522 6.16464716 87.35521801 1.97265625 83.86328125 C-0.80043484 81.24394571 -3.4133137 78.4892925 -5.9453125 75.63671875 C-8.81103242 73.35394946 -10.31219354 72.820107 -14 73 C-16.74555044 74.92591946 -18.89077789 77.32602701 -21.125 79.8125 C-22.33137204 81.11492077 -23.54216988 82.41325909 -24.7578125 83.70703125 C-25.2852002 84.2894458 -25.81258789 84.87186035 -26.35595703 85.47192383 C-30.3927459 89.22396742 -34.27992456 89.42203673 -39.5859375 89.328125 C-42.98441866 88.86619552 -44.71999073 87.50065533 -47 85 C-51.317443 76.365114 -47.94872497 61.37146034 -45.25390625 52.6015625 C-38.65093078 33.6360068 -30.17739287 10.77483469 -12 0 C-7.78434444 -1.40521852 -4.29380636 -1.03465214 0 0 Z M-11 43 C-13.2500372 45.69722984 -13.2500372 45.69722984 -12.8125 48.125 C-12.4103125 49.053125 -12.4103125 49.053125 -12 50 C-11.01 50.33 -10.02 50.66 -9 51 C-7.33378575 49.8354799 -7.33378575 49.8354799 -6 48 C-6.23043864 45.34533951 -6.23043864 45.34533951 -7 43 C-8.32 43 -9.64 43 -11 43 Z " transform="translate(413,51)" style="fill: #F48050;"/><path d="M0 0 C9.14618896 5.35502255 9.14618896 5.35502255 11.046875 10.4140625 C11.50773417 13.25867602 11.36927331 15.82677892 10.76171875 18.63671875 C5.89222986 24.11489376 -1.92822454 23.97302328 -8.7265625 24.6015625 C-11.82094976 25.00869224 -11.82094976 25.00869224 -13.21875 27.265625 C-13.98772485 29.36906801 -13.98772485 29.36906801 -12.73828125 31.32421875 C-12.07441406 31.28941406 -11.41054688 31.25460938 -10.7265625 31.21875 C-1.7683988 30.94412016 -1.7683988 30.94412016 2.26171875 34.32421875 C3.71319778 37.2271768 3.634109 39.09683654 3.26171875 42.32421875 C0.46421641 47.07997272 -1.77690879 48.60583601 -7.05078125 50.19921875 C-8.60819189 50.59482379 -10.16938934 50.97693006 -11.73828125 51.32421875 C-12.06828125 52.97421875 -12.39828125 54.62421875 -12.73828125 56.32421875 C-11.48015625 56.17984375 -10.22203125 56.03546875 -8.92578125 55.88671875 C-8.21808594 55.80550781 -7.51039063 55.72429687 -6.78125 55.640625 C-4.54431732 55.3525114 -4.54431732 55.3525114 -1.73828125 54.32421875 C0.38241436 54.15355591 2.50966973 54.05795895 4.63671875 54.01171875 C6.31894531 53.95564453 6.31894531 53.95564453 8.03515625 53.8984375 C11.95173478 54.41527413 13.53475985 55.50801392 16.26171875 58.32421875 C17.83239294 64.31241408 17.44721822 67.84914154 14.26171875 73.32421875 C8.66725663 80.96216703 0.02285308 84.40384064 -8.73828125 87.32421875 C-26.43976621 88.45488952 -26.43976621 88.45488952 -32.171875 84.76171875 C-40.87005803 76.7793463 -44.19422849 63.97353203 -44.9152832 52.51025391 C-45.68468898 16.13667253 -45.68468898 16.13667253 -35.73828125 5.32421875 C-25.86205887 -3.75454468 -12.29307062 -5.79095062 0 0 Z " transform="translate(738.73828125,52.67578125)" style="fill: #F48050;"/><path d="M0 0 C9.14618896 5.35502255 9.14618896 5.35502255 11.046875 10.4140625 C11.50773417 13.25867602 11.36927331 15.82677892 10.76171875 18.63671875 C5.89222986 24.11489376 -1.92822454 23.97302328 -8.7265625 24.6015625 C-11.82094976 25.00869224 -11.82094976 25.00869224 -13.21875 27.265625 C-13.98772485 29.36906801 -13.98772485 29.36906801 -12.73828125 31.32421875 C-12.07441406 31.28941406 -11.41054688 31.25460938 -10.7265625 31.21875 C-1.7683988 30.94412016 -1.7683988 30.94412016 2.26171875 34.32421875 C3.71319778 37.2271768 3.634109 39.09683654 3.26171875 42.32421875 C0.46421641 47.07997272 -1.77690879 48.60583601 -7.05078125 50.19921875 C-8.60819189 50.59482379 -10.16938934 50.97693006 -11.73828125 51.32421875 C-12.06828125 52.97421875 -12.39828125 54.62421875 -12.73828125 56.32421875 C-11.48015625 56.17984375 -10.22203125 56.03546875 -8.92578125 55.88671875 C-8.21808594 55.80550781 -7.51039063 55.72429687 -6.78125 55.640625 C-4.54431732 55.3525114 -4.54431732 55.3525114 -1.73828125 54.32421875 C0.38241436 54.15355591 2.50966973 54.05795895 4.63671875 54.01171875 C6.31894531 53.95564453 6.31894531 53.95564453 8.03515625 53.8984375 C11.95173478 54.41527413 13.53475985 55.50801392 16.26171875 58.32421875 C17.83239294 64.31241408 17.44721822 67.84914154 14.26171875 73.32421875 C8.66725663 80.96216703 0.02285308 84.40384064 -8.73828125 87.32421875 C-26.43976621 88.45488952 -26.43976621 88.45488952 -32.171875 84.76171875 C-40.87005803 76.7793463 -44.19422849 63.97353203 -44.9152832 52.51025391 C-45.68468898 16.13667253 -45.68468898 16.13667253 -35.73828125 5.32421875 C-25.86205887 -3.75454468 -12.29307062 -5.79095062 0 0 Z " transform="translate(317.73828125,52.67578125)" style="fill: #F48050;"/><path d="M0 0 C4.67245497 4.30357695 6.05083072 9.52602884 6.31884766 15.72021484 C6.36014713 17.55026494 6.39136413 19.38056218 6.4140625 21.2109375 C6.43342865 22.17907379 6.4527948 23.14721008 6.4727478 24.14468384 C6.5322833 27.2213677 6.5788247 30.29808951 6.625 33.375 C6.66320373 35.46746377 6.70225685 37.55991222 6.7421875 39.65234375 C6.83796345 44.76810396 6.92209042 49.88393776 7 55 C8.2377417 54.92128662 9.4754834 54.84257324 10.75073242 54.76147461 C12.38979735 54.66236836 14.02887692 54.56350415 15.66796875 54.46484375 C16.48197144 54.4124353 17.29597412 54.36002686 18.13464355 54.30603027 C25.43059298 53.8753345 31.14573654 53.61173874 37.0625 58.5625 C39.54450265 62.96605308 40.1478725 66.06498611 39 71 C34.88771628 79.78460607 26.11500928 83.9624063 17.5 87.375 C12.23338916 88.99864428 7.22226793 89.41582853 1.75 89.5 C1.00556641 89.51853027 0.26113281 89.53706055 -0.50585938 89.55615234 C-7.093698 89.48149017 -12.37655264 87.40482675 -17.25 82.9375 C-23.27083095 72.83110519 -24.20767751 62.71099963 -24.24023438 51.20214844 C-24.24980922 49.1655786 -24.28080618 47.13007781 -24.3125 45.09375 C-24.43037159 30.57075866 -22.64973765 14.10147376 -13.375 2.3125 C-9.35021081 -1.60637369 -5.21282033 -1.52698777 0 0 Z " transform="translate(648,51)" style="fill: #F48050;"/><path d="M0 0 C4.67245497 4.30357695 6.05083072 9.52602884 6.31884766 15.72021484 C6.36014713 17.55026494 6.39136413 19.38056218 6.4140625 21.2109375 C6.43342865 22.17907379 6.4527948 23.14721008 6.4727478 24.14468384 C6.5322833 27.2213677 6.5788247 30.29808951 6.625 33.375 C6.66320373 35.46746377 6.70225685 37.55991222 6.7421875 39.65234375 C6.83796345 44.76810396 6.92209042 49.88393776 7 55 C8.2377417 54.92128662 9.4754834 54.84257324 10.75073242 54.76147461 C12.38979735 54.66236836 14.02887692 54.56350415 15.66796875 54.46484375 C16.48197144 54.4124353 17.29597412 54.36002686 18.13464355 54.30603027 C25.43059298 53.8753345 31.14573654 53.61173874 37.0625 58.5625 C39.54450265 62.96605308 40.1478725 66.06498611 39 71 C34.88771628 79.78460607 26.11500928 83.9624063 17.5 87.375 C12.23338916 88.99864428 7.22226793 89.41582853 1.75 89.5 C1.00556641 89.51853027 0.26113281 89.53706055 -0.50585938 89.55615234 C-7.093698 89.48149017 -12.37655264 87.40482675 -17.25 82.9375 C-23.27083095 72.83110519 -24.20767751 62.71099963 -24.24023438 51.20214844 C-24.24980922 49.1655786 -24.28080618 47.13007781 -24.3125 45.09375 C-24.43037159 30.57075866 -22.64973765 14.10147376 -13.375 2.3125 C-9.35021081 -1.60637369 -5.21282033 -1.52698777 0 0 Z " transform="translate(66,51)" style="fill: #F48050;"/></svg>